<svg xmlns="http://www.w3.org/2000/svg" viewBox="0 0 175.86 179.74"><defs><style>.cls-1{fill:none;stroke:#fff;stroke-miterlimit:10;stroke-width:5px;}</style></defs><g id="예약팝업"><path class="cls-1" d="M54.11,115.45A18.13,18.13,0,1,1,36,97.29,18.12,18.12,0,0,1,54.11,115.45Z"/><path class="cls-1" d="M64.27,147.65A20.33,20.33,0,0,0,52.92,142L36.36,159.46,19,142.07A20.3,20.3,0,0,0,2.5,162v15.24H70.21V162A20.21,20.21,0,0,0,64.27,147.65Z"/><path class="cls-1" d="M157.26,115.45a18.14,18.14,0,1,1-18.14-18.16A18.12,18.12,0,0,1,157.26,115.45Z"/><path class="cls-1" d="M167.42,147.65A20.36,20.36,0,0,0,156.06,142L139.5,159.46l-17.36-17.39A20.27,20.27,0,0,0,105.65,162v15.24h67.71V162A20.25,20.25,0,0,0,167.42,147.65Z"/><path class="cls-1" d="M53.9,10.08A25.77,25.77,0,0,1,72.19,2.5h56.29a25.88,25.88,0,0,1,25.87,25.87V53.59a25.9,25.9,0,0,1-25.87,25.88H108.16c-5.48,7.71-15.74,16.81-35,22.61a102,102,0,0,0,6.27-22.61H72.19A25.9,25.9,0,0,1,46.32,53.59V28.37A25.75,25.75,0,0,1,53.9,10.08Z"/><line class="cls-1" x1="76.67" y1="27.39" x2="126.67" y2="27.39"/><line class="cls-1" x1="76.67" y1="52.29" x2="126.67" y2="52.29"/></g></svg>