<?xml version="1.0" encoding="utf-8"?>
<!-- Generator: Adobe Illustrator 25.0.1, SVG Export Plug-In . SVG Version: 6.00 Build 0)  -->
<svg version="1.1" xmlns="http://www.w3.org/2000/svg" xmlns:xlink="http://www.w3.org/1999/xlink" x="0px" y="0px"
	 viewBox="0 0 1920 1615.7" style="enable-background:new 0 0 1920 1615.7;" xml:space="preserve">
<style type="text/css">
	.st0{opacity:0.18;clip-path:url(#SVGID_2_);fill:url(#SVGID_3_);}
	.st1{opacity:0.18;clip-path:url(#SVGID_2_);fill:url(#SVGID_4_);}
	.st2{fill:#FFFFFF;}
	.st3{fill:none;stroke:#E56076;stroke-width:7;stroke-miterlimit:10;}
	.st4{fill:none;stroke:#717171;stroke-width:7;stroke-miterlimit:10;}
	.st5{fill:#E56076;}
	.st6{fill:#717171;}
	.st7{fill:#A5A7AA;}
	.st8{fill:none;stroke:#FFFFFF;stroke-width:3;stroke-miterlimit:10;}
	.st9{fill:none;stroke:#E56076;stroke-width:3;stroke-miterlimit:10;}
	.st10{fill:none;stroke:#E56076;stroke-width:2;stroke-miterlimit:10;}
	.st11{fill:#FFFFFF;stroke:#A5A7AA;stroke-width:0.75;stroke-miterlimit:10;}
	.st12{fill:#838383;}
	.st13{fill:#E56076;stroke:#E56076;stroke-width:0;stroke-linecap:round;stroke-linejoin:round;}
	.st14{fill:none;stroke:#FFFFFF;stroke-width:4;stroke-linecap:round;stroke-linejoin:round;stroke-miterlimit:10;}
	.st15{fill:#FFFFFF;stroke:#FFFFFF;stroke-width:4;stroke-linecap:round;stroke-linejoin:round;stroke-miterlimit:10;}
	.st16{fill:none;stroke:#FFFFFF;stroke-width:4;stroke-linecap:round;stroke-linejoin:round;}
	.st17{fill:#A4354E;}
	.st18{fill:#FFFFFF;stroke:#FFFFFF;stroke-width:4;}
	.st19{fill:none;stroke:#A4354E;stroke-width:4;stroke-miterlimit:10;}
	.st20{fill:none;stroke:#FFFFFF;stroke-width:4;}
	.st21{fill:none;stroke:#FFFFFF;stroke-width:4;stroke-miterlimit:10;}
	.st22{fill:none;stroke:#E56076;stroke-width:4;stroke-miterlimit:10;}
	.st23{fill:#B8B8B8;}
	.st24{fill:none;stroke:#000000;stroke-width:3;stroke-miterlimit:10;}
	.st25{fill:#D7D7D7;}
	.st26{fill:#3E3A39;}
	.st27{fill:#E76076;}
	.st28{fill:#777777;}
	.st29{fill:none;stroke:#E56076;stroke-width:0.75;stroke-miterlimit:10;}
	.st30{fill:#E56076;stroke:#E56076;stroke-width:0.75;stroke-miterlimit:10;}
	.st31{fill:none;stroke:#6D6E71;stroke-width:0.75;stroke-miterlimit:10;}
	.st32{clip-path:url(#SVGID_10_);}
	.st33{fill:none;stroke:#919396;stroke-width:0.5;stroke-miterlimit:10;}
	.st34{fill:none;stroke:#6D6E71;stroke-width:0.5;stroke-miterlimit:10;}
	.st35{opacity:0.5;fill:#E56076;}
	.st36{fill:none;stroke:#E56076;stroke-width:5;stroke-linecap:round;stroke-linejoin:round;stroke-dasharray:9.1907,9.1907;}
	.st37{fill:none;stroke:#919396;stroke-width:0.75;stroke-miterlimit:10;}
	.st38{fill:none;stroke:#E56076;stroke-width:5;stroke-linecap:round;stroke-linejoin:round;stroke-dasharray:8.7099,8.7099;}
	.st39{font-family:'Hallym-Bold';}
	.st40{font-size:55px;}
	.st41{letter-spacing:2;}
	.st42{font-family:'Hallym-Medium';}
	.st43{font-size:30px;}
	.st44{letter-spacing:1;}
	.st45{font-size:25px;}
	.st46{fill:#E56076;stroke:#E56076;stroke-width:0.5;stroke-miterlimit:10;}
	.st47{font-family:'Hallym-Regular';}
	.st48{font-size:26.3407px;}
	.st49{font-size:21.6999px;}
	.st50{font-size:21.9445px;}
	.st51{fill:#EDF0F2;}
	.st52{fill:none;stroke:#6D6E71;stroke-width:4;stroke-miterlimit:10;}
	.st53{fill:#6D6E71;}
	.st54{font-size:22px;}
	.st55{font-size:20px;}
	.st56{fill:#231F20;}
	.st57{font-size:24.1885px;}
	.st58{fill:#666666;}
	.st59{font-size:15px;}
	.st60{fill:#FFFFFF;stroke:#E56076;stroke-width:4;stroke-linecap:round;stroke-linejoin:round;stroke-miterlimit:10;}
	.st61{opacity:0.7;fill:#FFFFFF;}
	.st62{fill:none;stroke:#717171;stroke-width:2;stroke-miterlimit:10;}
	.st63{display:none;}
	.st64{display:inline;}
	.st65{fill:none;stroke:#E56076;stroke-width:6;stroke-miterlimit:10;}
	.st66{fill:none;stroke:#A5A7AA;stroke-width:0.75;stroke-miterlimit:10;}
	.st67{display:inline;fill:none;stroke:#E56076;stroke-width:3;stroke-miterlimit:10;}
	.st68{display:inline;fill:none;stroke:#E56076;stroke-width:6;stroke-miterlimit:10;}
	.st69{display:inline;fill:none;stroke:#A5A7AA;stroke-width:0.75;stroke-miterlimit:10;}
	.st70{fill:none;stroke:#DE295E;stroke-width:4;}
	.st71{fill:none;stroke:#DE295E;stroke-width:4;stroke-linecap:round;stroke-linejoin:round;}
	.st72{fill:#FFFFFF;stroke:#DE295E;stroke-width:4;stroke-linecap:round;stroke-linejoin:round;}
	.st73{fill:#757575;stroke:#DE295E;}
	.st74{fill:#FFFFFF;stroke:#DE295E;stroke-width:4;}
	.st75{fill:#FFFFFF;stroke:#000000;stroke-width:0.4552;stroke-linecap:round;stroke-linejoin:round;stroke-miterlimit:10;}
	
		.st76{clip-path:url(#SVGID_34_);fill:#FFFFFF;stroke:#000000;stroke-width:0.4552;stroke-linecap:round;stroke-linejoin:round;stroke-miterlimit:10;}
	.st77{fill:none;stroke:#000000;stroke-width:0.4006;stroke-linecap:round;stroke-linejoin:round;stroke-miterlimit:10;}
	.st78{fill:none;stroke:#000000;stroke-width:0.4552;stroke-linecap:round;stroke-linejoin:round;stroke-miterlimit:10;}
	.st79{fill:#FFFFFF;stroke:#000000;stroke-width:0.4006;stroke-linecap:round;stroke-linejoin:round;stroke-miterlimit:10;}
	.st80{fill:#FFFFFF;stroke:#000000;stroke-width:0.2543;stroke-linecap:round;stroke-linejoin:round;stroke-miterlimit:10;}
	.st81{fill:none;stroke:#000000;stroke-width:0.4487;stroke-miterlimit:10;}
	.st82{fill:none;stroke:#000000;stroke-width:0.25;stroke-miterlimit:10;stroke-dasharray:4,1;}
	.st83{fill:none;stroke:#000000;stroke-width:0.6577;stroke-linecap:round;stroke-linejoin:round;stroke-miterlimit:10;}
	.st84{fill:#FFFFFF;stroke:#000000;stroke-width:0.6577;stroke-linecap:round;stroke-linejoin:round;stroke-miterlimit:10;}
	
		.st85{clip-path:url(#SVGID_36_);fill:#FFFFFF;stroke:#000000;stroke-width:0.4552;stroke-linecap:round;stroke-linejoin:round;stroke-miterlimit:10;}
	.st86{fill:#DBEDF8;stroke:#000000;stroke-width:0.5265;stroke-miterlimit:10;}
	.st87{fill:#FFFFFF;stroke:#000000;stroke-width:0.3183;stroke-miterlimit:10;}
	.st88{fill:none;stroke:#000000;stroke-width:0.2889;stroke-linecap:round;stroke-linejoin:round;stroke-miterlimit:10;}
	.st89{fill:none;stroke:#000000;stroke-width:0.4487;stroke-linecap:round;stroke-linejoin:round;stroke-miterlimit:10;}
	.st90{fill:#FFFFFF;stroke:#000000;stroke-width:0.4487;stroke-miterlimit:10;}
	.st91{fill:none;stroke:#000000;stroke-width:0.3949;stroke-linecap:round;stroke-linejoin:round;stroke-miterlimit:10;}
	.st92{fill:#FFFFFF;stroke:#000000;stroke-width:0.3949;stroke-linecap:round;stroke-linejoin:round;stroke-miterlimit:10;}
	.st93{fill:none;stroke:#000000;stroke-width:0.2633;stroke-miterlimit:10;}
	.st94{fill:none;stroke:#000000;stroke-width:0.4552;stroke-linecap:round;stroke-linejoin:round;}
	.st95{fill:none;stroke:#000000;stroke-width:0.4552;stroke-linecap:round;stroke-linejoin:round;stroke-dasharray:1.8082,1.8082;}
	.st96{fill:none;stroke:#000000;stroke-width:0.4552;stroke-linecap:round;stroke-linejoin:round;stroke-dasharray:1.6593,1.6593;}
	.st97{fill:none;stroke:#000000;stroke-width:0.4552;stroke-linecap:round;stroke-linejoin:round;stroke-dasharray:1.4435,1.4435;}
	.st98{fill:none;stroke:#000000;stroke-width:0.3857;stroke-linecap:round;stroke-linejoin:round;stroke-miterlimit:10;}
	.st99{fill:none;}
	.st100{fill:none;stroke:#000000;stroke-width:0.3498;stroke-miterlimit:10;}
	.st101{fill:#FFFFFF;stroke:#000000;stroke-width:0.3857;stroke-linecap:round;stroke-linejoin:round;stroke-miterlimit:10;}
	
		.st102{fill:none;stroke:#000000;stroke-width:0.4552;stroke-linecap:round;stroke-linejoin:round;stroke-miterlimit:10;stroke-dasharray:0.8255;}
	.st103{fill:none;stroke:#000000;stroke-width:0.4411;stroke-linecap:round;stroke-linejoin:round;stroke-miterlimit:10;}
	.st104{fill:none;stroke:#000000;stroke-width:0.4577;stroke-linecap:round;stroke-linejoin:round;stroke-miterlimit:10;}
	.st105{fill:#FFFFFF;stroke:#000000;stroke-width:0.4577;stroke-linecap:round;stroke-linejoin:round;stroke-miterlimit:10;}
	.st106{fill:none;stroke:#000000;stroke-width:0.4727;stroke-linecap:round;stroke-linejoin:round;stroke-miterlimit:10;}
	.st107{fill:none;stroke:#000000;stroke-width:0.3559;stroke-linecap:round;stroke-linejoin:round;stroke-miterlimit:10;}
	.st108{fill:none;stroke:#000000;stroke-width:0.3103;stroke-linecap:round;stroke-linejoin:round;stroke-miterlimit:10;}
	
		.st109{clip-path:url(#SVGID_38_);fill:#FFFFFF;stroke:#000000;stroke-width:0.4552;stroke-linecap:round;stroke-linejoin:round;stroke-miterlimit:10;}
	.st110{fill:none;stroke:#000000;stroke-width:0.4678;stroke-linecap:round;stroke-linejoin:round;stroke-miterlimit:10;}
	.st111{fill:none;stroke:#000000;stroke-width:0.5316;stroke-linecap:round;stroke-linejoin:round;stroke-miterlimit:10;}
	.st112{fill:none;stroke:#000000;stroke-width:0.3965;stroke-linecap:round;stroke-linejoin:round;stroke-miterlimit:10;}
	.st113{fill-rule:evenodd;clip-rule:evenodd;fill:#FFFFFF;}
	.st114{opacity:0.85;fill:#E56076;}
	.st115{fill:none;stroke:#FFFFFF;stroke-width:5;stroke-miterlimit:10;}
	.st116{fill:none;stroke:#FFFFFF;stroke-width:2;stroke-miterlimit:10;}
</style>
<g id="텍스트">
</g>
<g id="main">
</g>
<g id="hi">
	<g>
		<defs>
			<rect id="SVGID_9_" x="-1408.44" y="1454.3" width="1049.74" height="292.81"/>
		</defs>
		<clipPath id="SVGID_2_">
			<use xlink:href="#SVGID_9_"  style="overflow:visible;"/>
		</clipPath>
		<g style="clip-path:url(#SVGID_2_);">
			<g>
				<line class="st33" x1="3.6" y1="1236.18" x2="3.6" y2="2886.77"/>
				<line class="st33" x1="22.44" y1="1236.18" x2="22.44" y2="2886.77"/>
				<line class="st33" x1="41.28" y1="1236.18" x2="41.28" y2="2886.77"/>
				<line class="st33" x1="60.11" y1="1236.18" x2="60.11" y2="2886.77"/>
				<line class="st33" x1="78.95" y1="1236.18" x2="78.95" y2="2886.77"/>
				<line class="st33" x1="97.79" y1="1236.18" x2="97.79" y2="2886.77"/>
				<line class="st33" x1="116.63" y1="1236.18" x2="116.63" y2="2886.77"/>
				<line class="st33" x1="135.47" y1="1236.18" x2="135.47" y2="2886.77"/>
				<line class="st33" x1="154.3" y1="1236.18" x2="154.3" y2="2886.77"/>
				<line class="st33" x1="173.14" y1="1236.18" x2="173.14" y2="2886.77"/>
				<line class="st33" x1="191.98" y1="1236.18" x2="191.98" y2="2886.77"/>
				<line class="st33" x1="210.82" y1="1236.18" x2="210.82" y2="2886.77"/>
				<line class="st33" x1="229.65" y1="1236.18" x2="229.65" y2="2886.77"/>
				<line class="st33" x1="248.49" y1="1236.18" x2="248.49" y2="2886.77"/>
			</g>
			<g>
				<line class="st33" x1="141.31" y1="1129" x2="-1509.28" y2="1129"/>
				<line class="st33" x1="141.31" y1="1147.84" x2="-1509.28" y2="1147.84"/>
				<line class="st33" x1="141.31" y1="1166.68" x2="-1509.28" y2="1166.68"/>
				<line class="st33" x1="141.31" y1="1185.51" x2="-1509.28" y2="1185.51"/>
				<line class="st33" x1="141.31" y1="1204.35" x2="-1509.28" y2="1204.35"/>
				<line class="st33" x1="141.31" y1="1223.19" x2="-1509.28" y2="1223.19"/>
				<line class="st33" x1="141.31" y1="1242.03" x2="-1509.28" y2="1242.03"/>
				<line class="st33" x1="141.31" y1="1260.87" x2="-1509.28" y2="1260.87"/>
				<line class="st33" x1="141.31" y1="1279.7" x2="-1509.28" y2="1279.7"/>
				<line class="st33" x1="141.31" y1="1298.54" x2="-1509.28" y2="1298.54"/>
				<line class="st33" x1="141.31" y1="1317.38" x2="-1509.28" y2="1317.38"/>
				<line class="st33" x1="141.31" y1="1336.22" x2="-1509.28" y2="1336.22"/>
				<line class="st33" x1="141.31" y1="1355.05" x2="-1509.28" y2="1355.05"/>
				<line class="st33" x1="141.31" y1="1373.89" x2="-1509.28" y2="1373.89"/>
				<line class="st33" x1="141.31" y1="1392.73" x2="-1509.28" y2="1392.73"/>
				<line class="st33" x1="141.31" y1="1411.57" x2="-1509.28" y2="1411.57"/>
				<line class="st33" x1="141.31" y1="1430.41" x2="-1509.28" y2="1430.41"/>
				<line class="st33" x1="141.31" y1="1449.24" x2="-1509.28" y2="1449.24"/>
				<line class="st33" x1="141.31" y1="1468.08" x2="-1509.28" y2="1468.08"/>
				<line class="st33" x1="141.31" y1="1486.92" x2="-1509.28" y2="1486.92"/>
				<line class="st33" x1="141.31" y1="1505.76" x2="-1509.28" y2="1505.76"/>
				<line class="st33" x1="141.31" y1="1524.6" x2="-1509.28" y2="1524.6"/>
				<line class="st33" x1="141.31" y1="1543.43" x2="-1509.28" y2="1543.43"/>
				<line class="st33" x1="141.31" y1="1562.27" x2="-1509.28" y2="1562.27"/>
				<line class="st33" x1="141.31" y1="1581.11" x2="-1509.28" y2="1581.11"/>
				<line class="st33" x1="141.31" y1="1599.95" x2="-1509.28" y2="1599.95"/>
			</g>
		</g>
	</g>
	<rect x="960.26" y="460.11" class="st30" width="350" height="80"/>
	<text transform="matrix(1 0 0 1 261.9995 359.1604)" class="st39 st40 st41">HI</text>
	<text transform="matrix(1 0 0 1 260.9995 876.3826)" class="st42 st43 st44">좌우조합</text>
	<text transform="matrix(1 0 0 1 260.9995 1283.5481)"><tspan x="0" y="0" class="st42 st43 st44">상하조합 </tspan><tspan x="128.1" y="0" class="st42 st45 st44">(중앙정렬)</tspan></text>
	<text transform="matrix(1 0 0 1 260.9995 1054.4241)"><tspan x="0" y="0" class="st42 st43 st44">상하조합 </tspan><tspan x="128.1" y="0" class="st42 st45 st44">(우측정렬)</tspan></text>
	<rect x="260.26" y="460.11" class="st29" width="350" height="80"/>
	<rect x="610.26" y="460.11" class="st29" width="350" height="80"/>
	<rect x="1310.26" y="460.11" class="st29" width="350" height="80"/>
	<line class="st9" x1="1660.44" y1="540.57" x2="260" y2="540.57"/>
	<g>
		<text transform="matrix(1 0 0 1 375.7169 510.8464)" class="st46 st42 st45 st44">로고 규정</text>
	</g>
	<text transform="matrix(1 0 0 1 743.783 510.8464)" class="st46 st42 st45 st44">한림체</text>
	<g>
		<text transform="matrix(1 0 0 1 1080.8892 510.8464)" class="st2 st42 st45 st44">시그니처</text>
	</g>
	<text transform="matrix(1 0 0 1 1443.1426 510.8464)" class="st46 st42 st45 st44">엠블렘</text>
	<rect x="260" y="589.28" class="st31" width="1400.52" height="190.76"/>
	<text transform="matrix(1 0 0 1 288.3086 651.074)"><tspan x="0" y="0" class="st30 st47 st48">한림대학교의료원</tspan><tspan x="198.08" y="0" class="st47 st49">의 이미지를 인식시키는 효과적인 수단입니다. </tspan><tspan x="0" y="40" class="st47 st49">적용 매체의 상황에 따라 적절한 타입의 시그니춰를 선택하여 사용할 수 있으며, </tspan><tspan x="0" y="80" class="st30 st47 st48">비례나 간격, 크기를 임의로 변경할 수 없습니다.</tspan></text>
	<g>
		<path class="st9" d="M1618.11,711.87h-222.99c-5.52,0-10-4.48-10-10v-39.09c0-5.52,4.48-10,10-10h222.99c5.52,0,10,4.48,10,10
			v39.09C1628.11,707.4,1623.63,711.87,1618.11,711.87z"/>
		<text transform="matrix(1 0 0 1 1466.0347 691.6487)" class="st47 st50">AI 다운로드</text>
		<g>
			<polygon class="st10" points="1415.04,678.95 1419.59,686.17 1424.15,693.38 1428.71,686.17 1433.26,678.95 1429.16,678.95 
				1429.16,665.82 1419.14,665.82 1419.14,678.95 			"/>
			<polyline class="st10" points="1412.52,693.38 1412.52,698.83 1436.05,698.83 1436.05,693.38 			"/>
		</g>
	</g>
	<g>
		<rect x="608.05" y="850.49" class="st31" width="291.49" height="87.56"/>
		<g>
			<g>
				<g>
					<g>
						<path class="st26" d="M704.88,891.5h-2.1v-2.57h4.79v-2.54h3.24v2.54h4.86v2.57h-2.06c0.74,0.88,1.18,1.99,1.18,3.22
							c0,2.91-2.45,5.23-5.55,5.23c-3.1,0-5.5-2.31-5.5-5.23C703.72,893.49,704.14,892.38,704.88,891.5z M709.59,901.54v4.12h11.1
							v2.64h-14.36v-6.75H709.59z M709.22,897.26c1.41,0,2.36-1.13,2.36-2.75c0-1.6-0.95-2.87-2.36-2.87s-2.36,1.27-2.36,2.87
							C706.87,896.12,707.81,897.26,709.22,897.26z M720.35,886.9v5.87h3.42v2.66h-3.42v6.99h-3.21V886.9H720.35z"/>
						<path class="st26" d="M737.63,896.12v2.54h-11.47v-7.1h6.98v-1.74h-6.98v-2.59h10.15v6.91h-6.98v1.97H737.63z M729.1,900.12
							h13.99v8.39H729.1V900.12z M732.34,902.74v3.1h7.52v-3.1H732.34z M743.09,886.9v12.19h-3.21V886.9H743.09z"/>
						<path class="st26" d="M756.19,900.17v2.73h-8.9v-14.71h8.21v2.73h-4.97v9.25H756.19z M765.28,886.9v21.39h-3.12v-11.35h-1.55
							v10.66h-3.03v-20.44h3.03v7.08h1.55v-7.33H765.28z"/>
						<path class="st26" d="M769.92,891.29h-1.97v-2.59h4.79v-2.52h3.24v2.52h4.86v2.59h-1.94c0.62,0.83,0.99,1.83,0.99,2.89
							c0,2.77-2.41,5.04-5.48,5.04c-3.08,0-5.46-2.27-5.46-5.04C768.95,893.12,769.29,892.12,769.92,891.29z M782.31,908.52v-5.23
							h-10.8v-2.66h14.01v7.89H782.31z M774.4,896.56c1.43,0,2.36-1.13,2.36-2.57c0-1.43-0.92-2.59-2.36-2.59
							c-1.46,0-2.36,1.16-2.36,2.59C772.04,895.43,772.95,896.56,774.4,896.56z M785.53,886.9v5.13h3.42v2.71h-3.42v4.74h-3.21
							V886.9H785.53z"/>
						<path class="st26" d="M794.53,903.41v-6.78h3.17v6.78h2.08v-6.78h3.17v6.78h7.1v2.66h-19.89v-2.66H794.53z M807.44,900.42
							h-3.19v-9.3h-11.73v-2.73h14.92V900.42z"/>
						<path class="st26" d="M826.09,901.54v2.7h-14.08v-2.7H826.09z M812.98,893.16c0-3.31,2.77-5.62,6.04-5.62
							c3.17,0,6.06,2.31,6.06,5.62c0,3.35-2.82,5.62-6.06,5.62C815.75,898.78,812.98,896.54,812.98,893.16z M821.79,893.16
							c0-1.76-1.25-2.94-2.77-2.94c-1.55,0-2.8,1.18-2.8,2.94c0,1.78,1.25,2.96,2.8,2.96C820.54,896.12,821.79,894.94,821.79,893.16
							z M830.46,886.9v21.39h-3.21V886.9H830.46z"/>
						<path class="st26" d="M833.62,903.41h5.04v-3.15h-2.43v-7.56h11.4v-2.17h-11.4v-2.66h14.64v7.45h-11.38v2.29h11.7v2.66h-2.75
							v3.15h5.06v2.66h-19.89V903.41z M845.27,903.41v-3.15h-3.42v3.15H845.27z"/>
						<path class="st26" d="M863.97,898.71v2.84h-3.17v-2.84h-5.34v-2.59h13.85v2.59H863.97z M867.92,891.03
							c0,2.43-2.08,4.51-5.41,4.51c-3.4,0-5.48-2.06-5.48-4.46c0-2.45,2.01-4.58,5.48-4.58
							C865.84,886.5,867.92,888.61,867.92,891.03z M862.49,905.65h11.79v2.64h-15.05v-6.06h3.26V905.65z M864.8,891.03
							c0-1.02-0.93-1.94-2.29-1.94c-1.46,0-2.36,0.93-2.36,1.94c0,1.04,0.9,1.94,2.36,1.94C863.88,892.98,864.8,892.08,864.8,891.03
							z M870.68,902.16h-4.37v-2.5h4.37v-12.79h3.24v16.63h-3.24V902.16z"/>
					</g>
				</g>
			</g>
			<g>
				<g>
					<path class="st6" d="M638.54,888.94c2.6,0.25,2.37,1.04,4.22,2.88c2.46,2.45,4.87,2.59,6.59,1.24
						c-1.04-0.32-2.23-1.17-2.89-1.8c-1.86-1.75-2.38-4.07-7.89-2.48C638.32,888.84,638.38,888.93,638.54,888.94"/>
				</g>
				<g>
					<g>
						<path class="st6" d="M694.84,885.26c-8.38-3.74-16.95-1.63-23.84,4.53c-6.71,6-11.3,13.06-20.31,13.22
							c6.9,2.39,20.5,1.5,27.95-5.96c0.2-0.21,0.05-0.18-0.08-0.11c-4.31,2.61-11.15,3.9-14.09,2.93
							c7.81-5.05,14.05-13.89,30.33-14.27C695.4,885.53,695.38,885.5,694.84,885.26"/>
					</g>
				</g>
				<g>
					<path class="st6" d="M650.05,899.02c-1.53,0.02-3.1-0.84-4.02-1.46c-1.36-0.91-2.31-2.22-3.37-3.25
						c-1.72-1.69-4.59-2.94-8.53-1.37c-0.21,0.09-0.26,0.19-0.05,0.2c3.61,0.18,3.49,0.62,6.52,3.99
						C642.66,899.4,648.12,900.04,650.05,899.02"/>
				</g>
				<g>
					<path class="st27" d="M687.63,881c-1.28-0.76-6.08-3.22-10.76-2.74c-2.42,0.25-4.53,0.89-6.66,2.41c-1,0.65-1.7,1.13-2.3,1.58
						v0c-0.05,0.04-0.28,0.21-0.35,0.27c-1.92,1.42-3.6,2.13-4.57,2.45c-0.34,0.1-0.65,0.19-0.89,0.25
						c3.14-4.02,6.52-7.86,10.7-9.49c0.13-0.05,0.13-0.22-0.01-0.25c-5.07-1.27-10.38-0.56-14.57,5.87
						c-4.77,7.32-7.61,16.05-14.2,12.9c4.07,3.87,9.09,2.2,13.41-3.03c0.61-0.74,1.22-1.52,1.83-2.31l0.72-0.94
						c2.06-0.15,3.57-0.65,4.44-1.01l-1.42,1.95c-4.72,6.48-11.06,14.25-20.47,10.41c10.86,7.23,18.98-3.16,23.02-6.96
						c5-4.69,10.02-10.7,22.08-11.03C687.92,881.32,688.11,881.28,687.63,881"/>
				</g>
			</g>
		</g>
	</g>
	<g>
		<rect x="917.75" y="850.49" class="st31" width="291.49" height="87.56"/>
		<g>
			<g>
				<g>
					<g>
						<path class="st26" d="M1014.82,885.85h-2.1v-2.57h4.79v-2.54h3.24v2.54h4.86v2.57h-2.06c0.74,0.88,1.18,1.99,1.18,3.22
							c0,2.91-2.45,5.23-5.55,5.23c-3.1,0-5.5-2.31-5.5-5.23C1013.66,887.84,1014.08,886.73,1014.82,885.85z M1019.53,895.89V900
							h11.1v2.64h-14.36v-6.75H1019.53z M1019.16,891.61c1.41,0,2.36-1.13,2.36-2.75c0-1.6-0.95-2.87-2.36-2.87
							s-2.36,1.27-2.36,2.87C1016.8,890.48,1017.75,891.61,1019.16,891.61z M1030.29,881.25v5.87h3.42v2.66h-3.42v6.99h-3.21v-15.52
							H1030.29z"/>
						<path class="st26" d="M1047.57,890.48v2.54h-11.47v-7.1h6.98v-1.74h-6.98v-2.59h10.15v6.91h-6.98v1.97H1047.57z
							 M1039.04,894.48h13.99v8.39h-13.99V894.48z M1042.28,897.09v3.1h7.52v-3.1H1042.28z M1053.03,881.25v12.19h-3.21v-12.19
							H1053.03z"/>
						<path class="st26" d="M1066.13,894.52v2.73h-8.9v-14.71h8.21v2.73h-4.97v9.25H1066.13z M1075.22,881.25v21.39h-3.12v-11.35
							h-1.55v10.66h-3.03V881.5h3.03v7.08h1.55v-7.33H1075.22z"/>
						<path class="st26" d="M1079.86,885.64h-1.97v-2.59h4.79v-2.52h3.24v2.52h4.86v2.59h-1.94c0.62,0.83,0.99,1.83,0.99,2.89
							c0,2.77-2.41,5.04-5.48,5.04c-3.08,0-5.46-2.27-5.46-5.04C1078.89,887.47,1079.23,886.48,1079.86,885.64z M1092.25,902.87
							v-5.23h-10.8v-2.66h14.01v7.89H1092.25z M1084.34,890.92c1.43,0,2.36-1.13,2.36-2.57c0-1.43-0.92-2.59-2.36-2.59
							c-1.46,0-2.36,1.16-2.36,2.59C1081.98,889.78,1082.89,890.92,1084.34,890.92z M1095.47,881.25v5.13h3.42v2.71h-3.42v4.74
							h-3.21v-12.58H1095.47z"/>
						<path class="st26" d="M1104.47,897.76v-6.78h3.17v6.78h2.08v-6.78h3.17v6.78h7.1v2.66h-19.89v-2.66H1104.47z M1117.38,894.78
							h-3.19v-9.3h-11.73v-2.73h14.92V894.78z"/>
						<path class="st26" d="M1136.03,895.89v2.7h-14.08v-2.7H1136.03z M1122.92,887.52c0-3.31,2.77-5.62,6.04-5.62
							c3.17,0,6.06,2.31,6.06,5.62c0,3.35-2.82,5.62-6.06,5.62C1125.69,893.14,1122.92,890.89,1122.92,887.52z M1131.73,887.52
							c0-1.76-1.25-2.94-2.77-2.94c-1.55,0-2.8,1.18-2.8,2.94c0,1.78,1.25,2.96,2.8,2.96
							C1130.48,890.48,1131.73,889.3,1131.73,887.52z M1140.4,881.25v21.39h-3.21v-21.39H1140.4z"/>
						<path class="st26" d="M1143.56,897.76h5.04v-3.15h-2.43v-7.56h11.4v-2.17h-11.4v-2.66h14.64v7.45h-11.38v2.29h11.7v2.66h-2.75
							v3.15h5.06v2.66h-19.89V897.76z M1155.21,897.76v-3.15h-3.42v3.15H1155.21z"/>
						<path class="st26" d="M1173.91,893.07v2.84h-3.17v-2.84h-5.34v-2.59h13.85v2.59H1173.91z M1177.86,885.39
							c0,2.43-2.08,4.51-5.41,4.51c-3.4,0-5.48-2.06-5.48-4.46c0-2.45,2.01-4.58,5.48-4.58
							C1175.78,880.86,1177.86,882.96,1177.86,885.39z M1172.43,900h11.79v2.64h-15.06v-6.06h3.26V900z M1174.74,885.39
							c0-1.02-0.93-1.94-2.29-1.94c-1.46,0-2.36,0.93-2.36,1.94c0,1.04,0.9,1.94,2.36,1.94
							C1173.82,887.33,1174.74,886.43,1174.74,885.39z M1180.62,896.51h-4.37v-2.5h4.37v-12.79h3.24v16.63h-3.24V896.51z"/>
					</g>
				</g>
			</g>
			<g>
				<g>
					<path class="st26" d="M1012.71,910.15h1.24v2.77h2.66v-2.77h1.24v6.86h-1.24v-2.98h-2.66v2.98h-1.24V910.15z"/>
					<path class="st26" d="M1023.1,915.41h-2.53l-0.52,1.59h-1.33l2.42-6.86h1.38l2.43,6.86h-1.33L1023.1,915.41z M1020.91,914.34
						h1.84l-0.92-2.82L1020.91,914.34z"/>
					<path class="st26" d="M1025.82,910.15h1.24v5.76h2.76v1.1h-4V910.15z"/>
					<path class="st26" d="M1030.69,910.15h1.24v5.76h2.76v1.1h-4V910.15z"/>
					<path class="st26" d="M1037.18,913l1.59-2.85h1.33l-2.3,4.07v2.79h-1.24v-2.79l-2.3-4.07h1.33L1037.18,913z"/>
					<path class="st26" d="M1043.96,915.76l-1.84-3.3v4.54h-1.15v-6.85h1.16l2.22,4.08l2.21-4.08h1.16v6.85h-1.15v-4.54l-1.84,3.3
						H1043.96z"/>
					<path class="st26" d="M1056.35,914.62c0,1.51-1.11,2.49-2.49,2.49s-2.5-0.98-2.5-2.49v-4.47h1.24v4.57
						c0,0.78,0.55,1.28,1.26,1.28c0.69,0,1.25-0.5,1.25-1.28v-4.57h1.24V914.62z"/>
					<path class="st26" d="M1057.74,910.15h1.22l2.83,4.74v-4.74h1.18v6.86h-1.22l-2.83-4.74v4.74h-1.18V910.15z"/>
					<path class="st26" d="M1065.73,910.15v6.86h-1.24v-6.86H1065.73z"/>
					<path class="st26" d="M1069.84,915.45l1.8-5.3h1.31l-2.43,6.86h-1.38l-2.42-6.86h1.31L1069.84,915.45z"/>
					<path class="st26" d="M1073.83,910.15h4.11v1.1h-2.87v1.77h2.64v1.09h-2.64v1.82h2.96v1.09h-4.2V910.15z"/>
					<path class="st26" d="M1082.63,914.2l1.38,2.81h-1.36l-1.19-2.62h-0.98v2.62h-1.24v-6.86h2.31c1.43,0,2.32,0.8,2.32,2.12
						C1083.86,913.22,1083.41,913.9,1082.63,914.2z M1081.46,911.23h-0.98v2.09h0.98c0.75,0,1.15-0.36,1.15-1.05
						C1082.61,911.58,1082.21,911.23,1081.46,911.23z"/>
					<path class="st26" d="M1085.49,915.16c0.43,0.48,1.03,0.86,1.66,0.86c0.71,0,1.21-0.36,1.21-0.92c0-0.48-0.3-0.88-1.41-1.12
						c-1.37-0.29-2.06-1-2.06-2.01c0-1.15,0.91-1.94,2.19-1.94c0.92,0,1.65,0.33,2.18,0.87l-0.7,0.9c-0.42-0.38-0.88-0.67-1.42-0.67
						c-0.57,0-1,0.29-1,0.75c0,0.51,0.37,0.85,1.34,1.07c1.53,0.36,2.12,1.07,2.12,2.14c0,1.19-0.91,2.03-2.43,2.03
						c-0.95,0-1.86-0.41-2.44-1.1L1085.49,915.16z"/>
					<path class="st26" d="M1092.11,910.15v6.86h-1.24v-6.86H1092.11z"/>
					<path class="st26" d="M1094.96,911.25h-1.76v-1.1h4.75v1.1h-1.75v5.76h-1.24V911.25z"/>
					<path class="st26" d="M1101.3,913l1.59-2.85h1.33l-2.3,4.07v2.79h-1.24v-2.79l-2.3-4.07h1.33L1101.3,913z"/>
					<path class="st26" d="M1110.34,915.76l-1.84-3.3v4.54h-1.15v-6.85h1.16l2.22,4.08l2.21-4.08h1.16v6.85h-1.15v-4.54l-1.84,3.3
						H1110.34z"/>
					<path class="st26" d="M1115.49,910.15h4.11v1.1h-2.87v1.77h2.64v1.09h-2.64v1.82h2.96v1.09h-4.2V910.15z"/>
					<path class="st26" d="M1123.11,910.15c2.04,0,3.35,1.32,3.35,3.43c0,2.11-1.31,3.43-3.35,3.43h-2.21v-6.86H1123.11z
						 M1122.14,911.27v4.62h0.94c1.24,0,2.11-0.73,2.11-2.32c0-1.58-0.87-2.31-2.11-2.31H1122.14z"/>
					<path class="st26" d="M1128.83,910.15v6.86h-1.24v-6.86H1128.83z"/>
					<path class="st26" d="M1129.96,913.58c0-2,1.33-3.55,3.31-3.55c0.87,0,1.63,0.29,2.26,0.78l-0.63,0.95
						c-0.49-0.36-0.98-0.62-1.64-0.62c-1.21,0-2.05,1.06-2.05,2.43c0,1.38,0.85,2.43,2.05,2.43c0.63,0,1.23-0.28,1.68-0.66
						c0.22,0.31,0.44,0.62,0.66,0.93c-0.62,0.53-1.44,0.84-2.34,0.84C1131.28,917.12,1129.96,915.58,1129.96,913.58z"/>
					<path class="st26" d="M1140.43,915.41h-2.53l-0.52,1.59h-1.33l2.42-6.86h1.38l2.43,6.86h-1.33L1140.43,915.41z M1138.24,914.34
						h1.84l-0.92-2.82L1138.24,914.34z"/>
					<path class="st26" d="M1143.14,910.15h1.24v5.76h2.76v1.1h-4V910.15z"/>
					<path class="st26" d="M1149.88,913.58c0-2,1.33-3.55,3.31-3.55c0.87,0,1.63,0.29,2.26,0.78l-0.63,0.95
						c-0.49-0.36-0.98-0.62-1.64-0.62c-1.21,0-2.05,1.06-2.05,2.43c0,1.38,0.85,2.43,2.05,2.43c0.63,0,1.23-0.28,1.68-0.66
						c0.22,0.31,0.44,0.62,0.66,0.93c-0.62,0.53-1.44,0.84-2.34,0.84C1151.21,917.12,1149.88,915.58,1149.88,913.58z"/>
					<path class="st26" d="M1156.49,910.15h4.11v1.1h-2.87v1.77h2.64v1.09h-2.64v1.82h2.96v1.09h-4.2V910.15z"/>
					<path class="st26" d="M1161.9,910.15h1.22l2.83,4.74v-4.74h1.18v6.86h-1.22l-2.83-4.74v4.74h-1.18V910.15z"/>
					<path class="st26" d="M1169.85,911.25h-1.76v-1.1h4.75v1.1h-1.75v5.76h-1.24V911.25z"/>
					<path class="st26" d="M1173.8,910.15h4.11v1.1h-2.87v1.77h2.64v1.09h-2.64v1.82h2.96v1.09h-4.2V910.15z"/>
					<path class="st26" d="M1182.6,914.2l1.38,2.81h-1.36l-1.19-2.62h-0.98v2.62h-1.24v-6.86h2.31c1.43,0,2.32,0.8,2.32,2.12
						C1183.83,913.22,1183.38,913.9,1182.6,914.2z M1181.43,911.23h-0.98v2.09h0.98c0.75,0,1.15-0.36,1.15-1.05
						C1182.58,911.58,1182.18,911.23,1181.43,911.23z"/>
				</g>
			</g>
			<g>
				<g>
					<path class="st6" d="M948.43,883.13c2.59,0.25,2.36,1.04,4.2,2.87c2.45,2.44,4.85,2.58,6.56,1.23
						c-1.03-0.32-2.22-1.17-2.88-1.8c-1.86-1.75-2.37-4.05-7.86-2.47C948.22,883.03,948.27,883.11,948.43,883.13"/>
				</g>
				<g>
					<path class="st6" d="M1004.52,879.46c-8.35-3.73-16.89-1.62-23.75,4.51c-6.69,5.98-11.26,13.01-20.24,13.17
						c6.87,2.38,20.42,1.49,27.85-5.94c0.2-0.21,0.05-0.18-0.08-0.11c-4.3,2.6-11.1,3.88-14.03,2.92
						c7.78-5.03,13.99-13.84,30.22-14.22C1005.09,879.73,1005.06,879.7,1004.52,879.46"/>
				</g>
				<g>
					<path class="st6" d="M959.91,893.17c-1.52,0.02-3.09-0.83-4.01-1.45c-1.35-0.9-2.3-2.21-3.35-3.24
						c-1.71-1.68-4.58-2.93-8.5-1.36c-0.21,0.08-0.26,0.19-0.05,0.2c3.6,0.18,3.48,0.62,6.49,3.97
						C952.54,893.55,957.98,894.19,959.91,893.17"/>
				</g>
				<g>
					<path class="st27" d="M997.35,875.21c-1.27-0.76-6.06-3.21-10.72-2.73c-2.42,0.25-4.52,0.89-6.63,2.41
						c-1,0.64-1.69,1.13-2.3,1.58v0c-0.05,0.04-0.28,0.21-0.35,0.27c-1.91,1.42-3.59,2.12-4.55,2.44c-0.34,0.1-0.64,0.19-0.88,0.25
						c3.13-4.01,6.5-7.83,10.66-9.46c0.13-0.05,0.13-0.22-0.01-0.25c-5.05-1.27-10.35-0.56-14.51,5.85
						c-4.75,7.3-7.58,15.99-14.14,12.85c4.05,3.86,9.06,2.19,13.36-3.02c0.6-0.74,1.22-1.51,1.82-2.3l0.72-0.93
						c2.05-0.15,3.56-0.65,4.42-1.01l-1.42,1.95c-4.71,6.45-11.02,14.2-20.39,10.37c10.82,7.2,18.91-3.15,22.93-6.94
						c4.98-4.67,9.98-10.66,22-10.99C997.63,875.53,997.82,875.49,997.35,875.21"/>
				</g>
			</g>
		</g>
	</g>
	<g>
		<rect x="1226.29" y="850.49" class="st31" width="434.97" height="87.56"/>
		<g>
			<g>
				<g>
					<path class="st26" d="M1320.09,891.88h2.45v5.47h5.26v-5.47h2.45v13.54h-2.45v-5.89h-5.26v5.89h-2.45V891.88z"/>
					<path class="st26" d="M1339.8,902.27h-5l-1.03,3.15h-2.62l4.78-13.54h2.72l4.8,13.54h-2.62L1339.8,902.27z M1335.48,900.16
						h3.63l-1.82-5.56L1335.48,900.16z"/>
					<path class="st26" d="M1344.34,891.88h2.45v11.38h5.47v2.16h-7.92V891.88z"/>
					<path class="st26" d="M1353.14,891.88h2.45v11.38h5.47v2.16h-7.92V891.88z"/>
					<path class="st26" d="M1365.14,897.51l3.14-5.63h2.64l-4.54,8.04v5.5h-2.45v-5.5l-4.54-8.04h2.62L1365.14,897.51z"/>
					<path class="st26" d="M1377.71,902.96l-3.63-6.51v8.97h-2.28V891.9h2.3l4.39,8.05l4.37-8.05h2.3v13.52h-2.28v-8.97l-3.63,6.51
						H1377.71z"/>
					<path class="st26" d="M1400.55,900.71c0,2.99-2.19,4.92-4.92,4.92c-2.73,0-4.94-1.93-4.94-4.92v-8.83h2.45v9.02
						c0,1.55,1.1,2.53,2.49,2.53c1.37,0,2.47-0.98,2.47-2.53v-9.02h2.45V900.71z"/>
					<path class="st26" d="M1402.47,891.88h2.42l5.59,9.35v-9.35h2.33v13.54h-2.42l-5.59-9.35v9.35h-2.33V891.88z"/>
					<path class="st26" d="M1417.42,891.88v13.54h-2.45v-13.54H1417.42z"/>
					<path class="st26" d="M1424.72,902.34l3.56-10.46h2.59l-4.8,13.54h-2.72l-4.78-13.54h2.59L1424.72,902.34z"/>
					<path class="st26" d="M1431.76,891.88h8.12v2.16h-5.67v3.5h5.21v2.14h-5.21v3.59h5.84v2.14h-8.29V891.88z"/>
					<path class="st26" d="M1448.34,899.88l2.73,5.54h-2.69l-2.35-5.17h-1.94v5.17h-2.45v-13.54h4.56c2.83,0,4.58,1.58,4.58,4.18
						C1450.77,897.95,1449.88,899.28,1448.34,899.88z M1446.02,894.01h-1.94v4.13h1.94c1.49,0,2.28-0.7,2.28-2.08
						C1448.3,894.71,1447.51,894.01,1446.02,894.01z"/>
					<path class="st26" d="M1453.16,901.78c0.86,0.95,2.04,1.71,3.27,1.71c1.41,0,2.4-0.7,2.4-1.81c0-0.95-0.6-1.74-2.78-2.22
						c-2.71-0.58-4.08-1.97-4.08-3.97c0-2.27,1.8-3.83,4.34-3.83c1.82,0,3.27,0.65,4.32,1.72l-1.39,1.78
						c-0.82-0.76-1.73-1.32-2.81-1.32c-1.13,0-1.97,0.58-1.97,1.48c0,1,0.74,1.67,2.64,2.11c3.03,0.7,4.2,2.11,4.2,4.22
						c0,2.36-1.8,4.01-4.8,4.01c-1.87,0-3.69-0.81-4.82-2.16L1453.16,901.78z"/>
					<path class="st26" d="M1465.41,891.88v13.54h-2.45v-13.54H1465.41z"/>
					<path class="st26" d="M1470.21,894.06h-3.48v-2.18h9.39v2.18h-3.46v11.36h-2.45V894.06z"/>
					<path class="st26" d="M1481.91,897.51l3.14-5.63h2.64l-4.54,8.04v5.5h-2.45v-5.5l-4.54-8.04h2.62L1481.91,897.51z"/>
					<path class="st26" d="M1498.12,902.96l-3.63-6.51v8.97h-2.28V891.9h2.3l4.39,8.05l4.37-8.05h2.3v13.52h-2.28v-8.97l-3.63,6.51
						H1498.12z"/>
					<path class="st26" d="M1507.48,891.88h8.12v2.16h-5.67v3.5h5.21v2.14h-5.21v3.59h5.84v2.14h-8.29V891.88z"/>
					<path class="st26" d="M1521.72,891.88c4.03,0,6.61,2.6,6.61,6.77c0,4.17-2.59,6.77-6.61,6.77h-4.37v-13.54H1521.72z
						 M1519.8,894.1v9.12h1.87c2.45,0,4.16-1.44,4.16-4.57c0-3.11-1.71-4.55-4.16-4.55H1519.8z"/>
					<path class="st26" d="M1532.18,891.88v13.54h-2.45v-13.54H1532.18z"/>
					<path class="st26" d="M1533.59,898.65c0-3.94,2.62-7,6.55-7c1.71,0,3.22,0.56,4.47,1.55l-1.23,1.88
						c-0.98-0.7-1.94-1.23-3.24-1.23c-2.38,0-4.06,2.09-4.06,4.8c0,2.73,1.68,4.8,4.06,4.8c1.25,0,2.43-0.56,3.32-1.3
						c0.45,0.62,0.87,1.23,1.3,1.85c-1.23,1.06-2.84,1.65-4.63,1.65C1536.21,905.65,1533.59,902.61,1533.59,898.65z"/>
					<path class="st26" d="M1553.45,902.27h-5l-1.03,3.15h-2.62l4.78-13.54h2.72l4.8,13.54h-2.62L1553.45,902.27z M1549.13,900.16
						h3.63l-1.82-5.56L1549.13,900.16z"/>
					<path class="st26" d="M1557.98,891.88h2.45v11.38h5.47v2.16h-7.92V891.88z"/>
					<path class="st26" d="M1569.65,898.65c0-3.94,2.62-7,6.55-7c1.71,0,3.22,0.56,4.47,1.55l-1.23,1.88
						c-0.98-0.7-1.94-1.23-3.24-1.23c-2.38,0-4.06,2.09-4.06,4.8c0,2.73,1.68,4.8,4.06,4.8c1.25,0,2.43-0.56,3.32-1.3
						c0.45,0.62,0.87,1.23,1.3,1.85c-1.23,1.06-2.84,1.65-4.63,1.65C1572.27,905.65,1569.65,902.61,1569.65,898.65z"/>
					<path class="st26" d="M1581.88,891.88h8.12v2.16h-5.67v3.5h5.21v2.14h-5.21v3.59h5.84v2.14h-8.29V891.88z"/>
					<path class="st26" d="M1591.75,891.88h2.42l5.59,9.35v-9.35h2.33v13.54h-2.42l-5.59-9.35v9.35h-2.33V891.88z"/>
					<path class="st26" d="M1606.62,894.06h-3.48v-2.18h9.39v2.18h-3.46v11.36h-2.45V894.06z"/>
					<path class="st26" d="M1613.6,891.88h8.12v2.16h-5.67v3.5h5.21v2.14h-5.21v3.59h5.84v2.14h-8.29V891.88z"/>
					<path class="st26" d="M1630.17,899.88l2.73,5.54h-2.69l-2.35-5.17h-1.94v5.17h-2.45v-13.54h4.56c2.83,0,4.58,1.58,4.58,4.18
						C1632.6,897.95,1631.71,899.28,1630.17,899.88z M1627.85,894.01h-1.94v4.13h1.94c1.49,0,2.28-0.7,2.28-2.08
						C1630.13,894.71,1629.34,894.01,1627.85,894.01z"/>
				</g>
			</g>
			<g>
				<g>
					<path class="st6" d="M1259.1,893.66c2.52,0.24,2.3,1.01,4.09,2.79c2.39,2.37,4.72,2.51,6.38,1.2c-1-0.31-2.16-1.14-2.8-1.75
						c-1.8-1.7-2.31-3.94-7.64-2.41C1258.89,893.56,1258.95,893.64,1259.1,893.66"/>
				</g>
				<g>
					<path class="st6" d="M1313.64,890.09c-8.12-3.62-16.42-1.58-23.09,4.39c-6.5,5.81-10.95,12.65-19.68,12.8
						c6.68,2.32,19.85,1.45,27.08-5.77c0.19-0.2,0.04-0.18-0.08-0.11c-4.18,2.53-10.8,3.78-13.64,2.84
						c7.56-4.9,13.61-13.46,29.38-13.83C1314.19,890.35,1314.17,890.33,1313.64,890.09"/>
				</g>
				<g>
					<path class="st6" d="M1270.26,903.42c-1.48,0.02-3-0.81-3.9-1.41c-1.31-0.88-2.24-2.15-3.26-3.15
						c-1.66-1.64-4.45-2.85-8.26-1.32c-0.21,0.08-0.25,0.18-0.04,0.19c3.5,0.18,3.38,0.6,6.31,3.86
						C1263.1,903.79,1268.39,904.41,1270.26,903.42"/>
				</g>
				<g>
					<path class="st27" d="M1306.66,885.96c-1.24-0.74-5.89-3.12-10.42-2.65c-2.35,0.24-4.39,0.87-6.45,2.34
						c-0.97,0.62-1.64,1.1-2.23,1.53v0c-0.05,0.04-0.27,0.21-0.34,0.26c-1.86,1.38-3.49,2.06-4.43,2.37
						c-0.33,0.1-0.63,0.18-0.86,0.24c3.04-3.89,6.32-7.62,10.36-9.2c0.12-0.05,0.12-0.21-0.01-0.24
						c-4.91-1.23-10.06-0.54-14.11,5.69c-4.62,7.09-7.37,15.55-13.75,12.49c3.94,3.75,8.81,2.13,12.99-2.94
						c0.59-0.72,1.18-1.47,1.77-2.23l0.7-0.91c1.99-0.15,3.46-0.63,4.3-0.98l-1.38,1.89c-4.58,6.28-10.71,13.81-19.83,10.08
						c10.52,7,18.39-3.07,22.3-6.74c4.84-4.54,9.71-10.37,21.39-10.69C1306.94,886.27,1307.13,886.24,1306.66,885.96"/>
				</g>
			</g>
		</g>
	</g>
	<g>
		<g>
			<rect x="1192.59" y="1028.53" class="st31" width="469.16" height="141.63"/>
		</g>
		<g>
			<g>
				<g>
					<path class="st26" d="M1258.23,1121.84h2.57v5.74h5.52v-5.74h2.57v14.22h-2.57v-6.19h-5.52v6.19h-2.57V1121.84z"/>
					<path class="st26" d="M1278.91,1132.75h-5.25l-1.08,3.3h-2.75l5.02-14.22h2.86l5.04,14.22h-2.75L1278.91,1132.75z
						 M1274.38,1130.54h3.81l-1.91-5.84L1274.38,1130.54z"/>
					<path class="st26" d="M1283.67,1121.84h2.57v11.95h5.74v2.27h-8.31V1121.84z"/>
					<path class="st26" d="M1292.91,1121.84h2.57v11.95h5.74v2.27h-8.31V1121.84z"/>
					<path class="st26" d="M1305.5,1127.75l3.29-5.91h2.77l-4.76,8.44v5.78h-2.57v-5.78l-4.77-8.44h2.75L1305.5,1127.75z"/>
					<path class="st26" d="M1318.7,1133.47l-3.81-6.83v9.42h-2.39v-14.2h2.41l4.6,8.46l4.59-8.46h2.41v14.2h-2.39v-9.42l-3.81,6.83
						H1318.7z"/>
					<path class="st26" d="M1342.67,1131.11c0,3.14-2.3,5.17-5.16,5.17s-5.18-2.03-5.18-5.17v-9.27h2.57v9.47
						c0,1.63,1.15,2.66,2.61,2.66c1.44,0,2.59-1.03,2.59-2.66v-9.47h2.57V1131.11z"/>
					<path class="st26" d="M1344.68,1121.84h2.54l5.86,9.82v-9.82h2.45v14.22h-2.54l-5.86-9.82v9.82h-2.45V1121.84z"/>
					<path class="st26" d="M1360.38,1121.84v14.22h-2.57v-14.22H1360.38z"/>
					<path class="st26" d="M1368.04,1132.83l3.74-10.99h2.71l-5.04,14.22h-2.86l-5.02-14.22h2.71L1368.04,1132.83z"/>
					<path class="st26" d="M1375.43,1121.84h8.52v2.27H1378v3.67h5.47v2.25H1378v3.77h6.13v2.25h-8.7V1121.84z"/>
					<path class="st26" d="M1392.82,1130.24l2.86,5.82h-2.82l-2.46-5.43h-2.03v5.43h-2.57v-14.22h4.78c2.97,0,4.8,1.66,4.8,4.39
						C1395.37,1128.21,1394.44,1129.61,1392.82,1130.24z M1390.39,1124.07h-2.03v4.34h2.03c1.56,0,2.39-0.74,2.39-2.18
						C1392.78,1124.81,1391.95,1124.07,1390.39,1124.07z"/>
					<path class="st26" d="M1397.89,1132.23c0.9,1,2.14,1.79,3.43,1.79c1.48,0,2.52-0.74,2.52-1.9c0-1-0.63-1.83-2.91-2.33
						c-2.84-0.61-4.28-2.07-4.28-4.17c0-2.38,1.89-4.03,4.55-4.03c1.91,0,3.43,0.68,4.53,1.81l-1.46,1.87
						c-0.86-0.79-1.82-1.38-2.95-1.38c-1.19,0-2.07,0.61-2.07,1.55c0,1.05,0.77,1.75,2.77,2.21c3.18,0.74,4.41,2.22,4.41,4.43
						c0,2.47-1.89,4.21-5.04,4.21c-1.96,0-3.87-0.85-5.05-2.27L1397.89,1132.23z"/>
					<path class="st26" d="M1410.75,1121.84v14.22h-2.57v-14.22H1410.75z"/>
					<path class="st26" d="M1415.78,1124.13h-3.65v-2.29h9.85v2.29h-3.63v11.93h-2.57V1124.13z"/>
					<path class="st26" d="M1428.06,1127.75l3.29-5.91h2.77l-4.77,8.44v5.78h-2.57v-5.78l-4.76-8.44h2.75L1428.06,1127.75z"/>
					<path class="st26" d="M1445.07,1133.47l-3.81-6.83v9.42h-2.39v-14.2h2.41l4.6,8.46l4.59-8.46h2.41v14.2h-2.39v-9.42l-3.81,6.83
						H1445.07z"/>
					<path class="st26" d="M1454.89,1121.84h8.52v2.27h-5.95v3.67h5.47v2.25h-5.47v3.77h6.13v2.25h-8.7V1121.84z"/>
					<path class="st26" d="M1469.83,1121.84c4.23,0,6.94,2.73,6.94,7.11c0,4.38-2.72,7.11-6.94,7.11h-4.59v-14.22H1469.83z
						 M1467.82,1124.17v9.58h1.96c2.57,0,4.37-1.51,4.37-4.8c0-3.27-1.8-4.78-4.37-4.78H1467.82z"/>
					<path class="st26" d="M1480.82,1121.84v14.22h-2.57v-14.22H1480.82z"/>
					<path class="st26" d="M1482.29,1128.95c0-4.14,2.75-7.35,6.87-7.35c1.8,0,3.38,0.59,4.69,1.63l-1.29,1.98
						c-1.03-0.74-2.03-1.29-3.4-1.29c-2.5,0-4.26,2.2-4.26,5.04c0,2.86,1.76,5.04,4.26,5.04c1.31,0,2.55-0.59,3.49-1.37
						c0.47,0.65,0.92,1.29,1.37,1.94c-1.29,1.11-2.98,1.74-4.85,1.74C1485.04,1136.3,1482.29,1133.1,1482.29,1128.95z"/>
					<path class="st26" d="M1503.13,1132.75h-5.25l-1.08,3.3h-2.75l5.02-14.22h2.86l5.04,14.22h-2.75L1503.13,1132.75z
						 M1498.6,1130.54h3.81l-1.91-5.84L1498.6,1130.54z"/>
					<path class="st26" d="M1507.9,1121.84h2.57v11.95h5.74v2.27h-8.31V1121.84z"/>
					<path class="st26" d="M1520.14,1128.95c0-4.14,2.75-7.35,6.87-7.35c1.8,0,3.38,0.59,4.69,1.63l-1.3,1.98
						c-1.03-0.74-2.03-1.29-3.4-1.29c-2.5,0-4.26,2.2-4.26,5.04c0,2.86,1.76,5.04,4.26,5.04c1.31,0,2.55-0.59,3.49-1.37
						c0.47,0.65,0.92,1.29,1.37,1.94c-1.29,1.11-2.98,1.74-4.85,1.74C1522.89,1136.3,1520.14,1133.1,1520.14,1128.95z"/>
					<path class="st26" d="M1532.98,1121.84h8.52v2.27h-5.95v3.67h5.47v2.25h-5.47v3.77h6.13v2.25h-8.7V1121.84z"/>
					<path class="st26" d="M1543.34,1121.84h2.54l5.86,9.82v-9.82h2.45v14.22h-2.54l-5.86-9.82v9.82h-2.45V1121.84z"/>
					<path class="st26" d="M1558.95,1124.13h-3.65v-2.29h9.85v2.29h-3.63v11.93h-2.57V1124.13z"/>
					<path class="st26" d="M1566.26,1121.84h8.52v2.27h-5.95v3.67h5.47v2.25h-5.47v3.77h6.13v2.25h-8.71V1121.84z"/>
					<path class="st26" d="M1583.65,1130.24l2.86,5.82h-2.82l-2.46-5.43h-2.03v5.43h-2.57v-14.22h4.78c2.97,0,4.8,1.66,4.8,4.39
						C1586.21,1128.21,1585.27,1129.61,1583.65,1130.24z M1581.23,1124.07h-2.03v4.34h2.03c1.56,0,2.39-0.74,2.39-2.18
						C1583.62,1124.81,1582.79,1124.07,1581.23,1124.07z"/>
				</g>
			</g>
			<g>
				<g>
					<path class="st6" d="M1500.95,1085.88c4.36,0.42,3.98,1.74,7.08,4.83c4.13,4.11,8.18,4.34,11.05,2.07
						c-1.74-0.54-3.74-1.97-4.85-3.03c-3.13-2.94-4-6.83-13.23-4.17C1500.59,1085.71,1500.69,1085.85,1500.95,1085.88"/>
				</g>
				<g>
					<path class="st6" d="M1595.43,1079.7c-14.07-6.27-28.45-2.73-40.01,7.6c-11.27,10.07-18.97,21.92-34.09,22.18
						c11.57,4.02,34.39,2.51,46.91-10c0.33-0.35,0.08-0.3-0.13-0.19c-7.24,4.39-18.7,6.54-23.64,4.92
						c13.1-8.48,23.57-23.31,50.9-23.95C1596.38,1080.15,1596.34,1080.1,1595.43,1079.7"/>
				</g>
				<g>
					<path class="st6" d="M1520.28,1102.79c-2.57,0.03-5.2-1.4-6.75-2.44c-2.28-1.52-3.88-3.72-5.65-5.46
						c-2.88-2.83-7.71-4.94-14.31-2.29c-0.36,0.14-0.43,0.31-0.08,0.33c6.06,0.31,5.85,1.05,10.94,6.69
						C1507.88,1103.43,1517.03,1104.51,1520.28,1102.79"/>
				</g>
				<g>
					<path class="st27" d="M1583.34,1072.55c-2.15-1.28-10.2-5.41-18.05-4.59c-4.07,0.42-7.61,1.5-11.17,4.05
						c-1.68,1.08-2.85,1.9-3.87,2.66v0c-0.08,0.06-0.47,0.36-0.58,0.45c-3.22,2.39-6.04,3.57-7.67,4.11
						c-0.58,0.18-1.09,0.31-1.49,0.42c5.27-6.75,10.94-13.19,17.95-15.93c0.22-0.09,0.21-0.37-0.02-0.42
						c-8.51-2.14-17.43-0.94-24.44,9.85c-8,12.29-12.77,26.94-23.82,21.64c6.83,6.5,15.26,3.68,22.5-5.09
						c1.02-1.24,2.05-2.54,3.07-3.87l1.21-1.57c3.45-0.25,5.99-1.09,7.45-1.7l-2.38,3.28c-7.93,10.87-18.56,23.91-34.35,17.47
						c18.22,12.13,31.86-5.31,38.63-11.68c8.38-7.87,16.82-17.96,37.06-18.52C1583.82,1073.08,1584.15,1073.02,1583.34,1072.55"/>
				</g>
			</g>
		</g>
	</g>
	<g>
		<g>
			<g>
				<g>
					<g>
						<path class="st26" d="M936.51,1117.41h-2.31v-2.81h5.24v-2.79H943v2.79h5.32v2.81h-2.25c0.81,0.96,1.29,2.18,1.29,3.52
							c0,3.19-2.69,5.72-6.08,5.72c-3.39,0-6.03-2.53-6.03-5.72C935.25,1119.59,935.7,1118.38,936.51,1117.41z M941.68,1128.4v4.51
							h12.16v2.89h-15.73v-7.4H941.68z M941.27,1123.72c1.54,0,2.58-1.24,2.58-3.01c0-1.75-1.04-3.14-2.58-3.14
							c-1.54,0-2.58,1.39-2.58,3.14C938.69,1122.48,939.73,1123.72,941.27,1123.72z M953.45,1112.37v6.43h3.75v2.91h-3.75v7.65
							h-3.52v-16.99H953.45z"/>
						<path class="st26" d="M972.39,1122.48v2.79h-12.56v-7.77h7.65v-1.9h-7.65v-2.84h11.12v7.57h-7.65v2.15H972.39z
							 M963.05,1126.86h15.32v9.19h-15.32V1126.86z M966.59,1129.72v3.39h8.23v-3.39H966.59z M978.37,1112.37v13.35h-3.52v-13.35
							H978.37z"/>
						<path class="st26" d="M992.73,1126.91v2.99h-9.75v-16.11h8.99v2.99h-5.44v10.13H992.73z M1002.68,1112.37v23.43h-3.42v-12.44
							h-1.7v11.67h-3.32v-22.39h3.32v7.75h1.7v-8.03H1002.68z"/>
						<path class="st26" d="M1007.77,1117.19h-2.15v-2.84h5.24v-2.76h3.55v2.76h5.32v2.84h-2.13c0.68,0.91,1.09,2,1.09,3.16
							c0,3.04-2.63,5.52-6,5.52c-3.37,0-5.98-2.48-5.98-5.52C1006.7,1119.19,1007.08,1118.1,1007.77,1117.19z M1021.34,1136.05
							v-5.72h-11.83v-2.91h15.35v8.63H1021.34z M1012.68,1122.96c1.57,0,2.58-1.24,2.58-2.81c0-1.57-1.01-2.84-2.58-2.84
							c-1.6,0-2.58,1.26-2.58,2.84C1010.1,1121.72,1011.08,1122.96,1012.68,1122.96z M1024.86,1112.37v5.62h3.75v2.96h-3.75v5.19
							h-3.52v-13.78H1024.86z"/>
						<path class="st26" d="M1034.73,1130.46v-7.42h3.47v7.42h2.28v-7.42h3.47v7.42h7.78v2.91h-21.78v-2.91H1034.73z
							 M1048.86,1127.19h-3.49v-10.18h-12.84v-2.99h16.33V1127.19z"/>
						<path class="st26" d="M1069.3,1128.4v2.96h-15.42v-2.96H1069.3z M1054.94,1119.24c0-3.62,3.04-6.15,6.61-6.15
							c3.47,0,6.64,2.53,6.64,6.15c0,3.67-3.09,6.15-6.64,6.15C1057.98,1125.39,1054.94,1122.93,1054.94,1119.24z M1064.59,1119.24
							c0-1.92-1.37-3.21-3.04-3.21c-1.7,0-3.06,1.29-3.06,3.21c0,1.95,1.37,3.24,3.06,3.24
							C1063.22,1122.48,1064.59,1121.19,1064.59,1119.24z M1074.08,1112.37v23.43h-3.52v-23.43H1074.08z"/>
						<path class="st26" d="M1077.55,1130.46h5.52v-3.44h-2.66v-8.28h12.48v-2.38h-12.48v-2.91h16.03v8.15h-12.46v2.51h12.81v2.91
							h-3.01v3.44h5.55v2.91h-21.78V1130.46z M1090.31,1130.46v-3.44h-3.75v3.44H1090.31z"/>
						<path class="st26" d="M1110.8,1125.31v3.12h-3.47v-3.12h-5.85v-2.84h15.17v2.84H1110.8z M1115.13,1116.91
							c0,2.66-2.28,4.94-5.93,4.94c-3.72,0-6-2.25-6-4.89c0-2.68,2.2-5.01,6-5.01C1112.85,1111.94,1115.13,1114.25,1115.13,1116.91z
							 M1109.18,1132.91h12.92v2.89h-16.49v-6.64h3.57V1132.91z M1111.71,1116.91c0-1.11-1.01-2.13-2.51-2.13
							c-1.6,0-2.58,1.01-2.58,2.13c0,1.14,0.99,2.13,2.58,2.13C1110.7,1119.03,1111.71,1118.05,1111.71,1116.91z M1118.14,1129.09
							h-4.79v-2.74h4.79v-14.01h3.55v18.21h-3.55V1129.09z"/>
					</g>
				</g>
			</g>
			<g>
				<g>
					<path class="st26" d="M934.22,1143.92h1.36v3.04h2.92v-3.04h1.36v7.52h-1.36v-3.27h-2.92v3.27h-1.36V1143.92z"/>
					<path class="st26" d="M945.61,1149.7h-2.77l-0.57,1.75h-1.45l2.65-7.52h1.51l2.66,7.52h-1.45L945.61,1149.7z M943.22,1148.52
						h2.01l-1.01-3.09L943.22,1148.52z"/>
					<path class="st26" d="M948.59,1143.92h1.36v6.32h3.03v1.2h-4.39V1143.92z"/>
					<path class="st26" d="M953.93,1143.92h1.36v6.32h3.03v1.2h-4.39V1143.92z"/>
					<path class="st26" d="M961.04,1147.05l1.74-3.13h1.46l-2.52,4.46v3.06h-1.36v-3.06l-2.52-4.46h1.45L961.04,1147.05z"/>
					<path class="st26" d="M968.47,1150.08l-2.02-3.61v4.98h-1.26v-7.51h1.27l2.43,4.47l2.42-4.47h1.27v7.51h-1.26v-4.98l-2.01,3.61
						H968.47z"/>
					<path class="st26" d="M982.06,1148.83c0,1.66-1.22,2.74-2.73,2.74c-1.51,0-2.74-1.07-2.74-2.74v-4.9h1.36v5.01
						c0,0.86,0.61,1.41,1.38,1.41c0.76,0,1.37-0.55,1.37-1.41v-5.01h1.36V1148.83z"/>
					<path class="st26" d="M983.58,1143.92h1.34l3.1,5.2v-5.2h1.29v7.52h-1.34l-3.1-5.2v5.2h-1.29V1143.92z"/>
					<path class="st26" d="M992.33,1143.92v7.52h-1.36v-7.52H992.33z"/>
					<path class="st26" d="M996.84,1149.73l1.98-5.81h1.43l-2.66,7.52h-1.51l-2.65-7.52h1.44L996.84,1149.73z"/>
					<path class="st26" d="M1001.2,1143.92h4.5v1.2h-3.14v1.94h2.89v1.19h-2.89v1.99h3.24v1.19h-4.6V1143.92z"/>
					<path class="st26" d="M1010.85,1148.37l1.51,3.08h-1.49l-1.3-2.87h-1.07v2.87h-1.36v-7.52h2.53c1.57,0,2.54,0.88,2.54,2.32
						C1012.2,1147.29,1011.7,1148.04,1010.85,1148.37z M1009.57,1145.11h-1.07v2.3h1.07c0.83,0,1.26-0.39,1.26-1.15
						C1010.83,1145.5,1010.39,1145.11,1009.57,1145.11z"/>
					<path class="st26" d="M1013.99,1149.42c0.47,0.53,1.13,0.95,1.81,0.95c0.78,0,1.33-0.39,1.33-1.01c0-0.53-0.33-0.97-1.54-1.23
						c-1.5-0.32-2.26-1.09-2.26-2.21c0-1.26,1-2.13,2.4-2.13c1.01,0,1.81,0.36,2.39,0.96l-0.77,0.99c-0.46-0.42-0.96-0.73-1.56-0.73
						c-0.63,0-1.09,0.32-1.09,0.82c0,0.56,0.41,0.93,1.46,1.17c1.68,0.39,2.33,1.17,2.33,2.34c0,1.31-1,2.23-2.66,2.23
						c-1.03,0-2.04-0.45-2.67-1.2L1013.99,1149.42z"/>
					<path class="st26" d="M1021.24,1143.92v7.52h-1.36v-7.52H1021.24z"/>
					<path class="st26" d="M1024.36,1145.14h-1.93v-1.21h5.21v1.21h-1.92v6.31h-1.36V1145.14z"/>
					<path class="st26" d="M1031.31,1147.05l1.74-3.13h1.46l-2.52,4.46v3.06h-1.36v-3.06l-2.52-4.46h1.45L1031.31,1147.05z"/>
					<path class="st26" d="M1041.21,1150.08l-2.02-3.61v4.98h-1.26v-7.51h1.27l2.43,4.47l2.42-4.47h1.27v7.51h-1.26v-4.98
						l-2.01,3.61H1041.21z"/>
					<path class="st26" d="M1046.86,1143.92h4.5v1.2h-3.14v1.94h2.89v1.19h-2.89v1.99h3.24v1.19h-4.6V1143.92z"/>
					<path class="st26" d="M1055.21,1143.92c2.23,0,3.67,1.45,3.67,3.76s-1.44,3.76-3.67,3.76h-2.42v-7.52H1055.21z
						 M1054.15,1145.15v5.07h1.03c1.36,0,2.31-0.8,2.31-2.54c0-1.73-0.95-2.53-2.31-2.53H1054.15z"/>
					<path class="st26" d="M1061.48,1143.92v7.52h-1.36v-7.52H1061.48z"/>
					<path class="st26" d="M1062.71,1147.68c0-2.19,1.45-3.89,3.63-3.89c0.95,0,1.79,0.31,2.48,0.86l-0.68,1.04
						c-0.54-0.39-1.08-0.68-1.8-0.68c-1.32,0-2.25,1.16-2.25,2.67c0,1.51,0.93,2.67,2.25,2.67c0.7,0,1.35-0.31,1.84-0.72
						c0.25,0.34,0.48,0.68,0.72,1.03c-0.68,0.59-1.58,0.92-2.57,0.92C1064.17,1151.57,1062.71,1149.88,1062.71,1147.68z"/>
					<path class="st26" d="M1074.19,1149.7h-2.77l-0.57,1.75h-1.45l2.65-7.52h1.51l2.66,7.52h-1.45L1074.19,1149.7z M1071.8,1148.52
						h2.01l-1.01-3.09L1071.8,1148.52z"/>
					<path class="st26" d="M1077.17,1143.92h1.36v6.32h3.03v1.2h-4.39V1143.92z"/>
					<path class="st26" d="M1084.55,1147.68c0-2.19,1.45-3.89,3.63-3.89c0.95,0,1.79,0.31,2.48,0.86l-0.68,1.04
						c-0.54-0.39-1.08-0.68-1.8-0.68c-1.32,0-2.25,1.16-2.25,2.67c0,1.51,0.93,2.67,2.25,2.67c0.7,0,1.35-0.31,1.84-0.72
						c0.25,0.34,0.48,0.68,0.72,1.03c-0.68,0.59-1.58,0.92-2.57,0.92C1086,1151.57,1084.55,1149.88,1084.55,1147.68z"/>
					<path class="st26" d="M1091.8,1143.92h4.5v1.2h-3.14v1.94h2.89v1.19h-2.89v1.99h3.24v1.19h-4.6V1143.92z"/>
					<path class="st26" d="M1097.73,1143.92h1.34l3.1,5.2v-5.2h1.29v7.52h-1.34l-3.1-5.2v5.2h-1.29V1143.92z"/>
					<path class="st26" d="M1106.43,1145.14h-1.93v-1.21h5.21v1.21h-1.92v6.31h-1.36V1145.14z"/>
					<path class="st26" d="M1110.76,1143.92h4.5v1.2h-3.14v1.94h2.89v1.19h-2.89v1.99h3.24v1.19h-4.6V1143.92z"/>
					<path class="st26" d="M1120.41,1148.37l1.51,3.08h-1.49l-1.3-2.87h-1.07v2.87h-1.36v-7.52h2.53c1.57,0,2.54,0.88,2.54,2.32
						C1121.76,1147.29,1121.26,1148.04,1120.41,1148.37z M1119.12,1145.11h-1.07v2.3h1.07c0.83,0,1.26-0.39,1.26-1.15
						C1120.39,1145.5,1119.95,1145.11,1119.12,1145.11z"/>
				</g>
			</g>
			<g>
				<g>
					<path class="st6" d="M1044.4,1072.75c4.57,0.44,4.18,1.83,7.43,5.07c4.34,4.32,8.58,4.55,11.6,2.18
						c-1.82-0.56-3.93-2.07-5.09-3.18c-3.28-3.08-4.2-7.16-13.88-4.37C1044.02,1072.57,1044.12,1072.72,1044.4,1072.75"/>
				</g>
				<g>
					<path class="st6" d="M1143.53,1066.27c-14.76-6.58-29.85-2.86-41.98,7.98c-11.82,10.57-19.9,23-35.77,23.27
						c12.14,4.21,36.09,2.63,49.22-10.5c0.35-0.36,0.08-0.32-0.14-0.2c-7.6,4.6-19.62,6.86-24.8,5.17
						c13.75-8.9,24.73-24.46,53.41-25.13C1144.53,1066.74,1144.49,1066.69,1143.53,1066.27"/>
				</g>
				<g>
					<path class="st6" d="M1064.68,1090.49c-2.69,0.04-5.46-1.47-7.08-2.56c-2.39-1.6-4.07-3.91-5.93-5.73
						c-3.02-2.97-8.09-5.18-15.01-2.41c-0.38,0.15-0.46,0.33-0.08,0.35c6.36,0.32,6.14,1.1,11.48,7.02
						C1051.66,1091.16,1061.27,1092.3,1064.68,1090.49"/>
				</g>
				<g>
					<path class="st27" d="M1130.84,1058.76c-2.25-1.34-10.7-5.67-18.94-4.82c-4.27,0.44-7.98,1.58-11.72,4.25
						c-1.77,1.14-2.99,1.99-4.06,2.79v0c-0.08,0.07-0.49,0.38-0.61,0.47c-3.38,2.5-6.34,3.74-8.05,4.31
						c-0.6,0.18-1.14,0.33-1.56,0.44c5.52-7.08,11.48-13.84,18.83-16.72c0.23-0.09,0.22-0.39-0.02-0.44
						c-8.93-2.24-18.28-0.98-25.65,10.34c-8.39,12.89-13.4,28.27-25,22.71c7.17,6.82,16.01,3.87,23.61-5.34
						c1.07-1.3,2.15-2.67,3.22-4.06l1.27-1.65c3.62-0.26,6.29-1.14,7.81-1.79l-2.5,3.44c-8.32,11.41-19.47,25.09-36.04,18.33
						c19.12,12.72,33.43-5.57,40.53-12.26c8.8-8.26,17.64-18.84,38.88-19.43C1131.34,1059.32,1131.69,1059.26,1130.84,1058.76"/>
				</g>
			</g>
		</g>
		<g>
			<g>
				<rect x="900.63" y="1028.53" class="st31" width="275.06" height="144.18"/>
			</g>
		</g>
	</g>
	<g>
		<g>
			<rect x="608.05" y="1028.53" class="st31" width="275.06" height="144.18"/>
		</g>
		<g>
			<g>
				<g>
					<g>
						<path class="st26" d="M648.27,1129.27h-2.24v-2.74h5.1v-2.71h3.45v2.71h5.18v2.74h-2.19c0.79,0.94,1.26,2.12,1.26,3.43
							c0,3.11-2.61,5.57-5.92,5.57s-5.87-2.46-5.87-5.57C647.04,1131.39,647.48,1130.21,648.27,1129.27z M653.3,1139.97v4.39h11.83
							v2.81h-15.31v-7.2H653.3z M652.91,1135.41c1.5,0,2.52-1.21,2.52-2.93c0-1.7-1.01-3.06-2.52-3.06s-2.51,1.36-2.51,3.06
							C650.39,1134.2,651.4,1135.41,652.91,1135.41z M664.77,1124.36v6.26h3.65v2.84h-3.65v7.44h-3.43v-16.54H664.77z"/>
						<path class="st26" d="M683.21,1134.2v2.71h-12.23v-7.57h7.45v-1.85h-7.45v-2.76h10.82v7.37h-7.45v2.09H683.21z
							 M674.11,1138.47h14.92v8.95h-14.92V1138.47z M677.56,1141.25v3.3h8.01v-3.3H677.56z M689.03,1124.36v12.99h-3.43v-12.99
							H689.03z"/>
						<path class="st26" d="M703,1138.52v2.91h-9.49v-15.68h8.75v2.91h-5.3v9.86H703z M712.69,1124.36v22.81h-3.33v-12.11h-1.65
							v11.37h-3.23v-21.8h3.23v7.55h1.65v-7.82H712.69z"/>
						<path class="st26" d="M717.64,1129.05h-2.1v-2.76h5.1v-2.69h3.45v2.69h5.18v2.76h-2.07c0.67,0.89,1.06,1.95,1.06,3.08
							c0,2.96-2.56,5.38-5.84,5.38c-3.28,0-5.82-2.42-5.82-5.38C716.61,1131,716.98,1129.94,717.64,1129.05z M730.86,1147.42v-5.57
							h-11.51v-2.84h14.94v8.41H730.86z M722.43,1134.67c1.53,0,2.52-1.21,2.52-2.74c0-1.53-0.99-2.76-2.52-2.76
							c-1.55,0-2.51,1.23-2.51,2.76C719.91,1133.46,720.88,1134.67,722.43,1134.67z M734.29,1124.36v5.47h3.65v2.88h-3.65v5.05
							h-3.43v-13.41H734.29z"/>
						<path class="st26" d="M743.9,1141.97v-7.22h3.38v7.22h2.22v-7.22h3.38v7.22h7.57v2.84h-21.2v-2.84H743.9z M757.66,1138.79
							h-3.4v-9.91h-12.5v-2.91h15.9V1138.79z"/>
						<path class="st26" d="M777.55,1139.97v2.88h-15.02v-2.88H777.55z M763.57,1131.05c0-3.53,2.96-5.99,6.43-5.99
							c3.38,0,6.46,2.46,6.46,5.99c0,3.58-3.01,5.99-6.46,5.99C766.53,1137.04,763.57,1134.65,763.57,1131.05z M772.97,1131.05
							c0-1.87-1.33-3.13-2.96-3.13c-1.65,0-2.98,1.26-2.98,3.13c0,1.9,1.33,3.16,2.98,3.16
							C771.64,1134.2,772.97,1132.95,772.97,1131.05z M782.21,1124.36v22.81h-3.43v-22.81H782.21z"/>
						<path class="st26" d="M785.59,1141.97h5.38v-3.35h-2.59v-8.06h12.15v-2.32h-12.15v-2.84h15.61v7.94h-12.13v2.44h12.48v2.84
							h-2.93v3.35h5.4v2.84h-21.2V1141.97z M798.01,1141.97v-3.35h-3.65v3.35H798.01z"/>
						<path class="st26" d="M817.96,1136.96v3.03h-3.38v-3.03h-5.7v-2.76h14.77v2.76H817.96z M822.17,1128.78
							c0,2.59-2.22,4.81-5.77,4.81c-3.62,0-5.84-2.19-5.84-4.76c0-2.61,2.15-4.88,5.84-4.88
							C819.95,1123.95,822.17,1126.19,822.17,1128.78z M816.38,1144.36h12.57v2.81H812.9v-6.46h3.48V1144.36z M818.84,1128.78
							c0-1.08-0.99-2.07-2.44-2.07c-1.55,0-2.51,0.99-2.51,2.07c0,1.11,0.96,2.07,2.51,2.07
							C817.86,1130.85,818.84,1129.89,818.84,1128.78z M825.11,1140.64h-4.66v-2.66h4.66v-13.64h3.45v17.73h-3.45V1140.64z"/>
					</g>
				</g>
			</g>
			<g>
				<g>
					<path class="st6" d="M753.3,1089.55c4.45,0.43,4.07,1.78,7.23,4.94c4.22,4.2,8.35,4.43,11.29,2.12
						c-1.77-0.55-3.82-2.01-4.96-3.09c-3.19-3-4.09-6.98-13.52-4.26C752.93,1089.38,753.03,1089.52,753.3,1089.55"/>
				</g>
				<g>
					<path class="st6" d="M849.82,1083.24c-14.37-6.41-29.06-2.79-40.87,7.77c-11.51,10.29-19.38,22.39-34.82,22.66
						c11.82,4.1,35.14,2.56,47.92-10.22c0.34-0.35,0.08-0.31-0.14-0.19c-7.4,4.48-19.11,6.68-24.15,5.03
						c13.39-8.66,24.08-23.82,52-24.47C850.79,1083.7,850.75,1083.65,849.82,1083.24"/>
				</g>
				<g>
					<path class="st6" d="M773.05,1106.83c-2.62,0.04-5.32-1.44-6.9-2.5c-2.32-1.55-3.97-3.8-5.77-5.57
						c-2.94-2.9-7.87-5.04-14.62-2.34c-0.37,0.15-0.44,0.32-0.08,0.34c6.19,0.32,5.98,1.07,11.17,6.83
						C760.37,1107.48,769.73,1108.58,773.05,1106.83"/>
				</g>
				<g>
					<path class="st27" d="M837.47,1075.94c-2.19-1.31-10.42-5.52-18.44-4.69c-4.16,0.43-7.77,1.53-11.41,4.14
						c-1.72,1.11-2.91,1.94-3.95,2.72v0c-0.08,0.07-0.48,0.37-0.6,0.46c-3.29,2.44-6.17,3.65-7.84,4.2
						c-0.59,0.18-1.11,0.32-1.52,0.43c5.38-6.89,11.18-13.48,18.34-16.28c0.22-0.09,0.22-0.38-0.02-0.43
						c-8.7-2.18-17.8-0.96-24.97,10.07c-8.17,12.55-13.04,27.52-24.34,22.11c6.98,6.64,15.58,3.76,22.99-5.2
						c1.04-1.27,2.09-2.6,3.13-3.95l1.24-1.61c3.53-0.26,6.12-1.11,7.61-1.74l-2.44,3.35c-8.1,11.11-18.96,24.43-35.09,17.84
						c18.62,12.39,32.54-5.42,39.46-11.93c8.56-8.04,17.18-18.35,37.86-18.92C837.95,1076.48,838.29,1076.42,837.47,1075.94"/>
				</g>
			</g>
		</g>
	</g>
	<g>
		<g>
			<rect x="1134.25" y="1254.58" class="st31" width="526.17" height="142.04"/>
		</g>
		<g>
			<g>
				<g>
					<path class="st26" d="M1214.85,1356.93h2.89v6.46h6.21v-6.46h2.89v15.99h-2.89v-6.96h-6.21v6.96h-2.89V1356.93z"/>
					<path class="st26" d="M1238.1,1369.2h-5.9l-1.21,3.72h-3.1l5.64-15.99h3.22l5.66,15.99h-3.09L1238.1,1369.2z M1233,1366.71
						h4.29l-2.14-6.56L1233,1366.71z"/>
					<path class="st26" d="M1243.45,1356.93h2.89v13.44h6.45v2.56h-9.34V1356.93z"/>
					<path class="st26" d="M1253.84,1356.93h2.89v13.44h6.45v2.56h-9.34V1356.93z"/>
					<path class="st26" d="M1267.99,1363.57l3.7-6.65h3.11l-5.36,9.49v6.5h-2.89v-6.5l-5.36-9.49h3.09L1267.99,1363.57z"/>
					<path class="st26" d="M1282.82,1370.01l-4.29-7.68v10.59h-2.69v-15.97h2.71l5.18,9.51l5.16-9.51h2.71v15.97h-2.69v-10.59
						l-4.29,7.68H1282.82z"/>
					<path class="st26" d="M1309.76,1367.35c0,3.53-2.59,5.82-5.8,5.82c-3.21,0-5.82-2.29-5.82-5.82v-10.43h2.89v10.66
						c0,1.83,1.29,2.99,2.93,2.99c1.62,0,2.91-1.16,2.91-2.99v-10.66h2.89V1367.35z"/>
					<path class="st26" d="M1312.02,1356.93h2.85l6.59,11.05v-11.05h2.75v15.99h-2.85l-6.59-11.05v11.05h-2.75V1356.93z"/>
					<path class="st26" d="M1329.67,1356.93v15.99h-2.89v-15.99H1329.67z"/>
					<path class="st26" d="M1338.28,1369.29l4.21-12.36h3.05l-5.66,15.99h-3.22l-5.64-15.99h3.05L1338.28,1369.29z"/>
					<path class="st26" d="M1346.58,1356.93h9.58v2.56h-6.69v4.13h6.15v2.54h-6.15v4.24h6.89v2.54h-9.79V1356.93z"/>
					<path class="st26" d="M1366.13,1366.38l3.22,6.54h-3.17l-2.77-6.11h-2.28v6.11h-2.89v-15.99h5.38c3.33,0,5.4,1.87,5.4,4.94
						C1369,1364.09,1367.95,1365.67,1366.13,1366.38z M1363.4,1359.44h-2.28v4.88h2.28c1.76,0,2.69-0.83,2.69-2.45
						C1366.09,1360.27,1365.16,1359.44,1363.4,1359.44z"/>
					<path class="st26" d="M1371.82,1368.62c1.01,1.12,2.41,2.02,3.86,2.02c1.66,0,2.83-0.83,2.83-2.14c0-1.12-0.71-2.06-3.28-2.62
						c-3.19-0.68-4.81-2.33-4.81-4.69c0-2.68,2.12-4.53,5.11-4.53c2.14,0,3.86,0.77,5.1,2.04l-1.64,2.1
						c-0.97-0.89-2.04-1.56-3.32-1.56c-1.33,0-2.33,0.69-2.33,1.74c0,1.19,0.87,1.97,3.12,2.49c3.58,0.83,4.95,2.49,4.95,4.98
						c0,2.78-2.12,4.74-5.66,4.74c-2.2,0-4.35-0.96-5.68-2.56L1371.82,1368.62z"/>
					<path class="st26" d="M1386.27,1356.93v15.99h-2.89v-15.99H1386.27z"/>
					<path class="st26" d="M1391.93,1359.5h-4.1v-2.58h11.08v2.58h-4.08v13.42h-2.89V1359.5z"/>
					<path class="st26" d="M1405.74,1363.57l3.7-6.65h3.12l-5.36,9.49v6.5h-2.89v-6.5l-5.36-9.49h3.1L1405.74,1363.57z"/>
					<path class="st26" d="M1424.85,1370.01l-4.29-7.68v10.59h-2.69v-15.97h2.71l5.18,9.51l5.16-9.51h2.71v15.97h-2.69v-10.59
						l-4.29,7.68H1424.85z"/>
					<path class="st26" d="M1435.88,1356.93h9.59v2.56h-6.69v4.13h6.15v2.54h-6.15v4.24h6.89v2.54h-9.79V1356.93z"/>
					<path class="st26" d="M1452.68,1356.93c4.75,0,7.8,3.07,7.8,8s-3.05,8-7.8,8h-5.16v-15.99H1452.68z M1450.42,1359.54v10.78h2.2
						c2.89,0,4.91-1.7,4.91-5.4c0-3.68-2.02-5.38-4.91-5.38H1450.42z"/>
					<path class="st26" d="M1465.03,1356.93v15.99h-2.89v-15.99H1465.03z"/>
					<path class="st26" d="M1466.69,1364.92c0-4.65,3.09-8.27,7.72-8.27c2.02,0,3.8,0.67,5.28,1.83l-1.45,2.22
						c-1.15-0.83-2.29-1.45-3.82-1.45c-2.81,0-4.79,2.47-4.79,5.67c0,3.22,1.98,5.67,4.79,5.67c1.48,0,2.87-0.67,3.92-1.54
						c0.52,0.73,1.03,1.46,1.54,2.18c-1.46,1.25-3.36,1.95-5.46,1.95C1469.78,1373.19,1466.69,1369.6,1466.69,1364.92z"/>
					<path class="st26" d="M1490.11,1369.2h-5.9l-1.21,3.72h-3.1l5.64-15.99h3.22l5.66,15.99h-3.09L1490.11,1369.2z
						 M1485.02,1366.71h4.29l-2.14-6.56L1485.02,1366.71z"/>
					<path class="st26" d="M1495.46,1356.93h2.89v13.44h6.45v2.56h-9.34V1356.93z"/>
					<path class="st26" d="M1509.23,1364.92c0-4.65,3.09-8.27,7.72-8.27c2.02,0,3.8,0.67,5.28,1.83l-1.45,2.22
						c-1.15-0.83-2.29-1.45-3.82-1.45c-2.81,0-4.79,2.47-4.79,5.67c0,3.22,1.98,5.67,4.79,5.67c1.48,0,2.87-0.67,3.92-1.54
						c0.52,0.73,1.03,1.46,1.54,2.18c-1.46,1.25-3.36,1.95-5.46,1.95C1512.32,1373.19,1509.23,1369.6,1509.23,1364.92z"/>
					<path class="st26" d="M1523.66,1356.93h9.58v2.56h-6.69v4.13h6.15v2.54h-6.15v4.24h6.89v2.54h-9.79V1356.93z"/>
					<path class="st26" d="M1535.3,1356.93h2.85l6.59,11.05v-11.05h2.75v15.99h-2.85l-6.59-11.05v11.05h-2.75V1356.93z"/>
					<path class="st26" d="M1552.84,1359.5h-4.1v-2.58h11.08v2.58h-4.09v13.42h-2.89V1359.5z"/>
					<path class="st26" d="M1561.06,1356.93h9.59v2.56h-6.69v4.13h6.15v2.54h-6.15v4.24h6.89v2.54h-9.79V1356.93z"/>
					<path class="st26" d="M1580.61,1366.38l3.21,6.54h-3.17l-2.77-6.11h-2.28v6.11h-2.89v-15.99h5.38c3.34,0,5.4,1.87,5.4,4.94
						C1583.48,1364.09,1582.43,1365.67,1580.61,1366.38z M1577.88,1359.44h-2.28v4.88h2.28c1.76,0,2.69-0.83,2.69-2.45
						C1580.57,1360.27,1579.64,1359.44,1577.88,1359.44z"/>
				</g>
			</g>
			<g>
				<g>
					<path class="st6" d="M1342.69,1303.98c5.56,0.53,5.08,2.23,9.04,6.17c5.28,5.25,10.44,5.54,14.11,2.65
						c-2.22-0.69-4.78-2.51-6.2-3.86c-3.99-3.75-5.11-8.72-16.89-5.32C1342.23,1303.77,1342.35,1303.94,1342.69,1303.98"/>
				</g>
				<g>
					<path class="st6" d="M1463.31,1296.09c-17.96-8.01-36.32-3.49-51.08,9.71c-14.38,12.86-24.22,27.99-43.52,28.31
						c14.78,5.13,43.91,3.2,59.88-12.77c0.42-0.44,0.1-0.39-0.17-0.24c-9.24,5.6-23.88,8.35-30.17,6.29
						c16.73-10.83,30.09-29.77,64.99-30.58C1464.52,1296.67,1464.47,1296.61,1463.31,1296.09"/>
				</g>
				<g>
					<path class="st6" d="M1367.37,1325.57c-3.28,0.04-6.64-1.79-8.62-3.12c-2.9-1.94-4.96-4.75-7.21-6.97
						c-3.68-3.62-9.84-6.3-18.27-2.93c-0.46,0.18-0.56,0.4-0.1,0.42c7.74,0.4,7.47,1.34,13.97,8.54
						C1351.53,1326.39,1363.22,1327.76,1367.37,1325.57"/>
				</g>
				<g>
					<path class="st27" d="M1447.87,1286.96c-2.74-1.63-13.02-6.9-23.04-5.86c-5.19,0.54-9.71,1.92-14.27,5.17
						c-2.15,1.38-3.63,2.43-4.94,3.39v0c-0.1,0.08-0.6,0.46-0.75,0.57c-4.11,3.05-7.71,4.56-9.79,5.25c-0.74,0.22-1.39,0.4-1.9,0.54
						c6.72-8.61,13.97-16.84,22.92-20.34c0.28-0.11,0.27-0.47-0.02-0.54c-10.87-2.73-22.25-1.2-31.21,12.58
						c-10.21,15.69-16.3,34.39-30.41,27.63c8.72,8.29,19.48,4.7,28.73-6.5c1.3-1.59,2.61-3.25,3.92-4.94l1.55-2.01
						c4.41-0.32,7.65-1.39,9.51-2.17l-3.04,4.18c-10.12,13.88-23.69,30.53-43.85,22.3c23.26,15.48,40.67-6.78,49.31-14.91
						c10.7-10.05,21.47-22.93,47.31-23.64C1448.48,1287.64,1448.9,1287.57,1447.87,1286.96"/>
				</g>
			</g>
		</g>
	</g>
	<g>
		<g>
			<rect x="871.19" y="1254.58" class="st31" width="244.38" height="142.04"/>
		</g>
		<g>
			<g>
				<g>
					<g>
						<path class="st26" d="M907.99,1342.3h-2.14v-2.69h4.88v-2.66h3.3v2.66h4.95v2.69h-2.1c0.75,0.92,1.2,2.08,1.2,3.36
							c0,3.05-2.5,5.47-5.66,5.47c-3.16,0-5.61-2.42-5.61-5.47C906.81,1344.38,907.24,1343.22,907.99,1342.3z M912.8,1352.8v4.31
							h11.31v2.76h-14.64v-7.07H912.8z M912.42,1348.33c1.44,0,2.4-1.19,2.4-2.88c0-1.67-0.97-3-2.4-3c-1.44,0-2.4,1.33-2.4,3
							C910.02,1347.14,910.98,1348.33,912.42,1348.33z M923.76,1337.48v6.15h3.49v2.79h-3.49v7.31h-3.28v-16.24H923.76z"/>
						<path class="st26" d="M941.38,1347.14v2.66h-11.69v-7.43h7.12v-1.82h-7.12v-2.71h10.35v7.24h-7.12v2.06H941.38z
							 M932.69,1351.33h14.26v8.79h-14.26V1351.33z M935.99,1354.06v3.24h7.66v-3.24H935.99z M946.95,1337.48v12.76h-3.28v-12.76
							H946.95z"/>
						<path class="st26" d="M960.3,1351.37v2.86h-9.08v-15.4h8.37v2.86h-5.07v9.68H960.3z M969.57,1337.48v22.39h-3.18v-11.89h-1.58
							v11.16h-3.09v-21.4h3.09v7.41h1.58v-7.67H969.57z"/>
						<path class="st26" d="M974.3,1342.08h-2v-2.71h4.88v-2.64h3.3v2.64h4.95v2.71h-1.98c0.64,0.87,1.02,1.91,1.02,3.03
							c0,2.91-2.45,5.28-5.59,5.28s-5.56-2.37-5.56-5.28C973.31,1343.99,973.66,1342.95,974.3,1342.08z M986.93,1360.11v-5.47
							h-11.01v-2.79h14.28v8.26H986.93z M978.87,1347.6c1.46,0,2.4-1.19,2.4-2.69c0-1.5-0.94-2.71-2.4-2.71
							c-1.49,0-2.4,1.21-2.4,2.71C976.47,1346.41,977.39,1347.6,978.87,1347.6z M990.21,1337.48v5.37h3.49v2.83h-3.49v4.96h-3.28
							v-13.17H990.21z"/>
						<path class="st26" d="M999.39,1354.76v-7.09h3.23v7.09h2.12v-7.09h3.23v7.09h7.24v2.79h-20.27v-2.79H999.39z M1012.55,1351.64
							h-3.25v-9.73h-11.95v-2.86h15.2V1351.64z"/>
						<path class="st26" d="M1031.56,1352.8v2.83h-14.35v-2.83H1031.56z M1018.2,1344.04c0-3.46,2.83-5.88,6.15-5.88
							c3.23,0,6.17,2.42,6.17,5.88c0,3.51-2.88,5.88-6.17,5.88C1021.02,1349.92,1018.2,1347.57,1018.2,1344.04z M1027.17,1344.04
							c0-1.84-1.27-3.07-2.83-3.07c-1.58,0-2.85,1.24-2.85,3.07c0,1.87,1.27,3.1,2.85,3.1
							C1025.9,1347.14,1027.17,1345.9,1027.17,1344.04z M1036.01,1337.48v22.39h-3.28v-22.39H1036.01z"/>
						<path class="st26" d="M1039.24,1354.76h5.14v-3.29h-2.48v-7.92h11.62v-2.27h-11.62v-2.79h14.92v7.8h-11.6v2.39h11.93v2.79
							h-2.81v3.29h5.16v2.79h-20.27V1354.76z M1051.12,1354.76v-3.29h-3.49v3.29H1051.12z"/>
						<path class="st26" d="M1070.18,1349.85v2.98h-3.23v-2.98h-5.44v-2.71h14.12v2.71H1070.18z M1074.21,1341.81
							c0,2.54-2.12,4.72-5.52,4.72c-3.46,0-5.59-2.15-5.59-4.67c0-2.56,2.05-4.79,5.59-4.79
							C1072.09,1337.07,1074.21,1339.27,1074.21,1341.81z M1068.67,1357.11h12.02v2.76h-15.34v-6.34h3.32V1357.11z M1071.03,1341.81
							c0-1.07-0.94-2.03-2.33-2.03c-1.48,0-2.4,0.97-2.4,2.03c0,1.09,0.92,2.03,2.4,2.03
							C1070.08,1343.85,1071.03,1342.9,1071.03,1341.81z M1077.01,1353.46h-4.45v-2.61h4.45v-13.39h3.3v17.41h-3.3V1353.46z"/>
					</g>
				</g>
			</g>
			<g>
				<g>
					<path class="st26" d="M906.1,1368.1h1.27v2.83h2.71v-2.83h1.26v7h-1.26v-3.04h-2.71v3.04h-1.27V1368.1z"/>
					<path class="st26" d="M916.71,1373.47h-2.58l-0.53,1.63h-1.35l2.46-7h1.41l2.47,7h-1.35L916.71,1373.47z M914.48,1372.38h1.87
						l-0.94-2.87L914.48,1372.38z"/>
					<path class="st26" d="M919.48,1368.1h1.27v5.88h2.82v1.12h-4.08V1368.1z"/>
					<path class="st26" d="M924.46,1368.1h1.27v5.88h2.82v1.12h-4.08V1368.1z"/>
					<path class="st26" d="M931.08,1371.01l1.62-2.91h1.36l-2.34,4.15v2.84h-1.26v-2.84l-2.34-4.15h1.35L931.08,1371.01z"/>
					<path class="st26" d="M938,1373.83l-1.87-3.36v4.63h-1.18v-6.99h1.19l2.26,4.16l2.25-4.16h1.18v6.99h-1.17v-4.63l-1.87,3.36
						H938z"/>
					<path class="st26" d="M950.65,1372.67c0,1.54-1.13,2.54-2.54,2.54c-1.41,0-2.55-1-2.55-2.54v-4.56h1.27v4.66
						c0,0.8,0.57,1.31,1.28,1.31c0.71,0,1.27-0.51,1.27-1.31v-4.66h1.26V1372.67z"/>
					<path class="st26" d="M952.07,1368.1h1.25l2.88,4.83v-4.83h1.2v7h-1.24l-2.88-4.83v4.83h-1.2V1368.1z"/>
					<path class="st26" d="M960.22,1368.1v7h-1.26v-7H960.22z"/>
					<path class="st26" d="M964.42,1373.51l1.84-5.41h1.33l-2.47,7h-1.41l-2.46-7h1.33L964.42,1373.51z"/>
					<path class="st26" d="M968.49,1368.1h4.19v1.12h-2.92v1.81h2.69v1.11h-2.69v1.85h3.01v1.11h-4.28V1368.1z"/>
					<path class="st26" d="M977.47,1372.24l1.41,2.86h-1.39l-1.21-2.67h-1v2.67h-1.27v-7h2.35c1.46,0,2.36,0.82,2.36,2.16
						C978.72,1371.24,978.27,1371.93,977.47,1372.24z M976.28,1369.2h-1v2.14h1c0.77,0,1.18-0.36,1.18-1.07
						C977.45,1369.57,977.05,1369.2,976.28,1369.2z"/>
					<path class="st26" d="M980.4,1373.22c0.44,0.49,1.05,0.88,1.69,0.88c0.72,0,1.24-0.36,1.24-0.94c0-0.49-0.31-0.9-1.43-1.15
						c-1.4-0.3-2.1-1.02-2.1-2.05c0-1.17,0.93-1.98,2.24-1.98c0.94,0,1.69,0.34,2.23,0.89l-0.72,0.92
						c-0.42-0.39-0.89-0.68-1.45-0.68c-0.58,0-1.02,0.3-1.02,0.76c0,0.52,0.38,0.86,1.36,1.09c1.57,0.36,2.17,1.09,2.17,2.18
						c0,1.22-0.93,2.07-2.47,2.07c-0.96,0-1.9-0.42-2.48-1.12L980.4,1373.22z"/>
					<path class="st26" d="M987.15,1368.1v7h-1.26v-7H987.15z"/>
					<path class="st26" d="M990.06,1369.23h-1.79v-1.13h4.84v1.13h-1.79v5.87h-1.26V1369.23z"/>
					<path class="st26" d="M996.53,1371.01l1.62-2.91h1.36l-2.34,4.15v2.84h-1.26v-2.84l-2.34-4.15h1.35L996.53,1371.01z"/>
					<path class="st26" d="M1005.75,1373.83l-1.87-3.36v4.63h-1.18v-6.99h1.19l2.26,4.16l2.25-4.16h1.18v6.99h-1.17v-4.63
						l-1.87,3.36H1005.75z"/>
					<path class="st26" d="M1011.01,1368.1h4.19v1.12h-2.92v1.81h2.69v1.11h-2.69v1.85h3.01v1.11h-4.28V1368.1z"/>
					<path class="st26" d="M1018.79,1368.1c2.08,0,3.41,1.34,3.41,3.5c0,2.15-1.33,3.5-3.41,3.5h-2.25v-7H1018.79z M1017.8,1369.25
						v4.72h0.96c1.26,0,2.15-0.75,2.15-2.36c0-1.61-0.88-2.35-2.15-2.35H1017.8z"/>
					<path class="st26" d="M1024.63,1368.1v7h-1.26v-7H1024.63z"/>
					<path class="st26" d="M1025.78,1371.6c0-2.04,1.35-3.62,3.38-3.62c0.88,0,1.66,0.29,2.31,0.8l-0.64,0.97
						c-0.5-0.36-1-0.64-1.67-0.64c-1.23,0-2.09,1.08-2.09,2.48c0,1.41,0.87,2.48,2.09,2.48c0.65,0,1.26-0.29,1.72-0.67
						c0.23,0.32,0.45,0.64,0.67,0.95c-0.64,0.55-1.47,0.85-2.39,0.85C1027.13,1375.22,1025.78,1373.65,1025.78,1371.6z"/>
					<path class="st26" d="M1036.46,1373.47h-2.58l-0.53,1.63H1032l2.46-7h1.41l2.47,7h-1.35L1036.46,1373.47z M1034.23,1372.38
						h1.87l-0.94-2.87L1034.23,1372.38z"/>
					<path class="st26" d="M1039.24,1368.1h1.27v5.88h2.82v1.12h-4.08V1368.1z"/>
					<path class="st26" d="M1046.12,1371.6c0-2.04,1.35-3.62,3.38-3.62c0.88,0,1.66,0.29,2.31,0.8l-0.64,0.97
						c-0.5-0.36-1-0.64-1.67-0.64c-1.23,0-2.09,1.08-2.09,2.48c0,1.41,0.87,2.48,2.09,2.48c0.65,0,1.26-0.29,1.72-0.67
						c0.23,0.32,0.45,0.64,0.67,0.95c-0.64,0.55-1.47,0.85-2.39,0.85C1047.47,1375.22,1046.12,1373.65,1046.12,1371.6z"/>
					<path class="st26" d="M1052.87,1368.1h4.19v1.12h-2.92v1.81h2.69v1.11h-2.69v1.85h3.01v1.11h-4.28V1368.1z"/>
					<path class="st26" d="M1058.39,1368.1h1.25l2.88,4.83v-4.83h1.2v7h-1.24l-2.88-4.83v4.83h-1.2V1368.1z"/>
					<path class="st26" d="M1066.5,1369.23h-1.79v-1.13h4.84v1.13h-1.79v5.87h-1.26V1369.23z"/>
					<path class="st26" d="M1070.53,1368.1h4.19v1.12h-2.92v1.81h2.69v1.11h-2.69v1.85h3.01v1.11h-4.28V1368.1z"/>
					<path class="st26" d="M1079.51,1372.24l1.41,2.86h-1.39l-1.21-2.67h-1v2.67h-1.27v-7h2.35c1.46,0,2.36,0.82,2.36,2.16
						C1080.76,1371.24,1080.31,1371.93,1079.51,1372.24z M1078.32,1369.2h-1v2.14h1c0.77,0,1.18-0.36,1.18-1.07
						C1079.49,1369.57,1079.09,1369.2,1078.32,1369.2z"/>
				</g>
			</g>
			<g>
				<g>
					<path class="st6" d="M951.15,1299.08c4.29,0.41,3.92,1.72,6.97,4.76c4.07,4.05,8.05,4.27,10.87,2.04
						c-1.71-0.53-3.68-1.94-4.78-2.98c-3.08-2.89-3.94-6.72-13.02-4.1C950.79,1298.92,950.89,1299.05,951.15,1299.08"/>
				</g>
				<g>
					<path class="st6" d="M1044.11,1293c-13.84-6.17-27.99-2.69-39.36,7.48c-11.09,9.91-18.67,21.57-33.54,21.82
						c11.39,3.95,33.84,2.47,46.15-9.84c0.33-0.34,0.07-0.3-0.13-0.18c-7.12,4.32-18.4,6.44-23.26,4.84
						c12.89-8.34,23.19-22.94,50.08-23.57C1045.04,1293.45,1045,1293.4,1044.11,1293"/>
				</g>
				<g>
					<path class="st6" d="M970.17,1315.72c-2.53,0.03-5.12-1.38-6.64-2.4c-2.24-1.5-3.82-3.66-5.56-5.37
						c-2.84-2.79-7.58-4.86-14.08-2.26c-0.35,0.14-0.43,0.31-0.08,0.33c5.96,0.3,5.76,1.03,10.76,6.58
						C957.96,1316.35,966.97,1317.41,970.17,1315.72"/>
				</g>
				<g>
					<path class="st27" d="M1032.21,1285.97c-2.11-1.26-10.03-5.32-17.76-4.52c-4,0.42-7.49,1.48-10.99,3.99
						c-1.66,1.07-2.8,1.87-3.8,2.62v0c-0.08,0.06-0.46,0.35-0.57,0.44c-3.17,2.35-5.95,3.51-7.55,4.04
						c-0.57,0.17-1.07,0.31-1.46,0.42c5.18-6.64,10.77-12.98,17.66-15.68c0.21-0.09,0.21-0.36-0.02-0.42
						c-8.38-2.1-17.15-0.92-24.05,9.69c-7.87,12.09-12.56,26.51-23.44,21.3c6.72,6.39,15.01,3.63,22.14-5.01
						c1-1.22,2.02-2.5,3.02-3.81l1.19-1.55c3.4-0.25,5.9-1.07,7.33-1.67l-2.35,3.22c-7.8,10.7-18.26,23.53-33.79,17.19
						c17.93,11.93,31.34-5.23,38.01-11.49c8.25-7.75,16.55-17.67,36.46-18.22C1032.68,1286.49,1033,1286.43,1032.21,1285.97"/>
				</g>
			</g>
		</g>
	</g>
	<g>
		<g>
			<rect x="608.05" y="1254.58" class="st31" width="244.38" height="142.04"/>
		</g>
		<g>
			<g>
				<g>
					<g>
						<path class="st26" d="M645.83,1350.41h-2.12v-2.69h4.83v-2.66h3.27v2.66h4.9v2.69h-2.08c0.75,0.92,1.19,2.08,1.19,3.36
							c0,3.05-2.47,5.47-5.6,5.47c-3.13,0-5.55-2.42-5.55-5.47C644.66,1352.49,645.09,1351.33,645.83,1350.41z M650.59,1360.91v4.31
							h11.2v2.76H647.3v-7.07H650.59z M650.22,1356.44c1.42,0,2.38-1.19,2.38-2.88c0-1.67-0.96-3-2.38-3c-1.42,0-2.38,1.33-2.38,3
							C647.84,1355.25,648.8,1356.44,650.22,1356.44z M661.45,1345.59v6.15h3.45v2.79h-3.45v7.31h-3.24v-16.24H661.45z"/>
						<path class="st26" d="M678.92,1355.25v2.66h-11.58v-7.43h7.05v-1.82h-7.05v-2.71h10.25v7.24h-7.05v2.06H678.92z
							 M670.3,1359.44h14.12v8.79H670.3V1359.44z M673.57,1362.17v3.24h7.59v-3.24H673.57z M684.42,1345.59v12.76h-3.24v-12.76
							H684.42z"/>
						<path class="st26" d="M697.67,1359.49v2.86h-8.99v-15.4h8.29v2.86h-5.02v9.68H697.67z M706.84,1345.59v22.39h-3.15v-11.89
							h-1.56v11.16h-3.06v-21.4h3.06v7.41h1.56v-7.67H706.84z"/>
						<path class="st26" d="M711.54,1350.19h-1.98v-2.71h4.83v-2.64h3.27v2.64h4.9v2.71h-1.96c0.63,0.87,1,1.91,1,3.03
							c0,2.91-2.43,5.28-5.53,5.28c-3.1,0-5.51-2.37-5.51-5.28C710.56,1352.1,710.91,1351.06,711.54,1350.19z M724.05,1368.22v-5.47
							h-10.9v-2.79h14.14v8.26H724.05z M716.07,1355.71c1.45,0,2.38-1.19,2.38-2.69c0-1.5-0.93-2.71-2.38-2.71
							c-1.47,0-2.38,1.21-2.38,2.71C713.69,1354.52,714.6,1355.71,716.07,1355.71z M727.3,1345.59v5.37h3.45v2.83h-3.45v4.96h-3.24
							v-13.17H727.3z"/>
						<path class="st26" d="M736.41,1362.87v-7.09h3.2v7.09h2.1v-7.09h3.2v7.09h7.17v2.79H732v-2.79H736.41z M749.43,1359.75h-3.22
							v-9.73h-11.83v-2.86h15.05V1359.75z"/>
						<path class="st26" d="M768.28,1360.91v2.83h-14.21v-2.83H768.28z M755.04,1352.15c0-3.46,2.8-5.88,6.09-5.88
							c3.2,0,6.12,2.42,6.12,5.88c0,3.51-2.85,5.88-6.12,5.88C757.84,1358.03,755.04,1355.68,755.04,1352.15z M763.94,1352.15
							c0-1.84-1.26-3.08-2.8-3.08c-1.56,0-2.82,1.24-2.82,3.08c0,1.86,1.26,3.1,2.82,3.1
							C762.67,1355.25,763.94,1354.01,763.94,1352.15z M772.69,1345.59v22.39h-3.24v-22.39H772.69z"/>
						<path class="st26" d="M775.89,1362.87h5.09v-3.29h-2.45v-7.92h11.51v-2.27h-11.51v-2.79h14.78v7.8h-11.49v2.4h11.81v2.78
							h-2.78v3.29h5.11v2.79h-20.07V1362.87z M787.66,1362.87v-3.29h-3.45v3.29H787.66z"/>
						<path class="st26" d="M806.55,1357.96v2.98h-3.2v-2.98h-5.39v-2.71h13.98v2.71H806.55z M810.54,1349.92
							c0,2.54-2.1,4.72-5.46,4.72c-3.43,0-5.53-2.15-5.53-4.67c0-2.56,2.03-4.79,5.53-4.79
							C808.44,1345.18,810.54,1347.38,810.54,1349.92z M805.06,1365.22h11.9v2.76h-15.2v-6.34h3.29V1365.22z M807.39,1349.92
							c0-1.07-0.93-2.03-2.31-2.03c-1.47,0-2.38,0.97-2.38,2.03c0,1.09,0.91,2.03,2.38,2.03
							C806.46,1351.96,807.39,1351.01,807.39,1349.92z M813.32,1361.57h-4.41v-2.61h4.41v-13.39h3.27v17.41h-3.27V1361.57z"/>
					</g>
				</g>
			</g>
			<g>
				<g>
					<path class="st6" d="M688.44,1306.08c4.25,0.41,3.88,1.72,6.9,4.76c4.03,4.05,7.97,4.27,10.77,2.04
						c-1.69-0.53-3.65-1.94-4.73-2.98c-3.05-2.89-3.9-6.72-12.89-4.1C688.09,1305.91,688.19,1306.05,688.44,1306.08"/>
				</g>
				<g>
					<path class="st6" d="M780.5,1300c-13.71-6.17-27.72-2.69-38.98,7.48c-10.98,9.91-18.48,21.57-33.22,21.82
						c11.28,3.95,33.51,2.47,45.71-9.84c0.32-0.34,0.07-0.3-0.13-0.18c-7.05,4.32-18.22,6.44-23.03,4.84
						c12.77-8.34,22.97-22.94,49.6-23.57C781.43,1300.44,781.39,1300.39,780.5,1300"/>
				</g>
				<g>
					<path class="st6" d="M707.28,1322.72c-2.5,0.03-5.07-1.38-6.58-2.4c-2.22-1.5-3.78-3.66-5.5-5.37
						c-2.81-2.79-7.51-4.86-13.94-2.26c-0.35,0.14-0.42,0.31-0.08,0.33c5.91,0.3,5.7,1.03,10.66,6.58
						C695.19,1323.34,704.11,1324.41,707.28,1322.72"/>
				</g>
				<g>
					<path class="st27" d="M768.72,1292.96c-2.09-1.26-9.94-5.32-17.59-4.52c-3.96,0.42-7.41,1.48-10.89,3.99
						c-1.64,1.06-2.77,1.87-3.77,2.62v0c-0.08,0.06-0.46,0.35-0.57,0.44c-3.14,2.35-5.89,3.51-7.48,4.04
						c-0.56,0.17-1.06,0.31-1.45,0.42c5.13-6.64,10.66-12.98,17.49-15.68c0.21-0.09,0.21-0.36-0.02-0.42
						c-8.3-2.1-16.98-0.92-23.82,9.69c-7.79,12.09-12.44,26.51-23.21,21.3c6.65,6.39,14.86,3.63,21.93-5.01
						c0.99-1.22,2-2.5,2.99-3.81l1.18-1.55c3.36-0.25,5.84-1.07,7.25-1.67l-2.32,3.22c-7.72,10.7-18.08,23.53-33.47,17.19
						c17.76,11.93,31.04-5.23,37.64-11.49c8.17-7.75,16.39-17.67,36.11-18.22C769.19,1293.48,769.51,1293.43,768.72,1292.96"/>
				</g>
			</g>
		</g>
	</g>
</g>
<g id="상단_x5F_hi">
	<rect y="120.76" class="st51" width="1920" height="80"/>
	<text transform="matrix(1 0 0 1 287.3085 167.0588)" class="st53 st39 st54">의료원 소개</text>
	<g>
		<polyline class="st52" points="515.8,156.82 523.15,164.7 530.49,156.82 		"/>
	</g>
	<g>
		<polyline class="st52" points="833.37,156.82 840.72,164.7 848.07,156.82 		"/>
	</g>
	<rect x="260.59" y="120.76" class="st34" width="303.69" height="80"/>
	<rect x="564.32" y="120.76" class="st34" width="303.69" height="80"/>
	<text transform="matrix(1 0 0 1 611.1759 167.0588)" class="st53 st39 st54">HI</text>
	<rect y="120.76" class="st34" width="1920" height="80"/>
</g>
<g id="메인상단_x5F_hi">
	<g>
		<rect class="st2" width="1920" height="120"/>
	</g>
	<path class="st5" d="M952,48H816.95c-2.75,0-5-2.25-5-5V6c0-2.76,2.24-5,5-5H952c2.75,0,5,2.25,5,5v37C957,45.75,954.75,48,952,48z
		"/>
	<path class="st6" d="M1103.05,48H968c-2.75,0-5-2.25-5-5V6c0-2.76,2.24-5,5-5h135.05c2.75,0,5,2.25,5,5v37
		C1108.05,45.75,1105.8,48,1103.05,48z"/>
	<text transform="matrix(1 0 0 1 846.8745 31.7444)" class="st2 st42 st55">진료예약</text>
	<text transform="matrix(1 0 0 1 988.5266 31.7444)" class="st2 st42 st55">진료시간표</text>
	<g>
		<text transform="matrix(1 0 0 1 700.1914 93.0818)" class="st56 st42 st57">소개</text>
		<text transform="matrix(1 0 0 1 849.9077 93.0818)" class="st56 st42 st57">산하기관</text>
		<text transform="matrix(1 0 0 1 1045.0977 93.0818)" class="st56 st42 st57">산하연구소</text>
		<text transform="matrix(1 0 0 1 1263.0244 93.0818)" class="st56 st42 st57">사회공헌</text>
		<text transform="matrix(1 0 0 1 1458.2144 93.0818)" class="st56 st42 st57">PR</text>
		<text transform="matrix(1 0 0 1 1594.1917 93.0818)" class="st56 st42 st57">한림인</text>
	</g>
	<g>
		<text transform="matrix(1 0 0 1 1498 39.4866)" class="st58 st47 st59">로그인 ㆍ 회원가입 ㆍ EN</text>
	</g>
	<line class="st9" x1="0" y1="121" x2="1924.87" y2="121"/>
	<g>
		<g>
			<g>
				<g>
					<path class="st26" d="M373.85,61.9h-3.36v-4.1h7.64v-4.06h5.17v4.06h7.76v4.1h-3.29c1.18,1.4,1.88,3.18,1.88,5.13
						c0,4.65-3.91,8.34-8.86,8.34c-4.95,0-8.79-3.69-8.79-8.34C372,65.08,372.66,63.31,373.85,61.9z M381.38,77.93v6.57h17.73v4.21
						h-22.93V77.93H381.38z M380.79,71.1c2.25,0,3.77-1.81,3.77-4.4c0-2.55-1.51-4.58-3.77-4.58s-3.77,2.03-3.77,4.58
						C377.02,69.29,378.54,71.1,380.79,71.1z M398.55,54.55v9.38h5.47v4.25h-5.47v11.15h-5.13V54.55H398.55z"/>
					<path class="st26" d="M426.15,69.29v4.06h-18.32V62.01h11.15v-2.77h-11.15v-4.14h16.21v11.04H412.9v3.14H426.15z M412.53,75.68
						h22.34v13.4h-22.34V75.68z M417.7,79.85v4.95h12v-4.95H417.7z M434.87,54.55v19.46h-5.13V54.55H434.87z"/>
					<path class="st26" d="M455.79,75.75v4.36h-14.22V56.62h13.11v4.36h-7.94v14.77H455.79z M470.3,54.55v34.16h-4.99V70.58h-2.47
						V87.6H458V54.96h4.84v11.3h2.47V54.55H470.3z"/>
					<path class="st26" d="M477.7,61.57h-3.14v-4.14h7.64v-4.02h5.17v4.02h7.76v4.14h-3.1c1,1.33,1.59,2.92,1.59,4.62
						c0,4.43-3.84,8.05-8.75,8.05c-4.91,0-8.71-3.62-8.71-8.05C476.15,64.49,476.71,62.9,477.7,61.57z M497.5,89.08v-8.35h-17.25
						v-4.25h22.38v12.59H497.5z M484.87,69.99c2.29,0,3.77-1.81,3.77-4.1c0-2.29-1.48-4.14-3.77-4.14c-2.33,0-3.77,1.85-3.77,4.14
						C481.1,68.18,482.54,69.99,484.87,69.99z M502.63,54.55v8.2h5.47v4.32h-5.47v7.57h-5.13V54.55H502.63z"/>
					<path class="st26" d="M517.01,80.92V70.1h5.06v10.82h3.32V70.1h5.06v10.82h11.34v4.25h-31.76v-4.25H517.01z M537.62,76.16h-5.1
						V61.31H513.8v-4.36h23.82V76.16z"/>
					<path class="st26" d="M567.4,77.93v4.32h-22.49v-4.32H567.4z M546.46,64.56c0-5.28,4.43-8.98,9.64-8.98
						c5.06,0,9.67,3.69,9.67,8.98c0,5.36-4.5,8.97-9.67,8.97C550.89,73.53,546.46,69.95,546.46,64.56z M560.53,64.56
						c0-2.81-1.99-4.69-4.43-4.69c-2.48,0-4.47,1.88-4.47,4.69c0,2.84,1.99,4.73,4.47,4.73C558.54,69.29,560.53,67.4,560.53,64.56z
						 M574.38,54.55v34.16h-5.13V54.55H574.38z"/>
					<path class="st26" d="M579.42,80.92h8.05V75.9h-3.88V63.82h18.21v-3.47h-18.21V56.1h23.38V68H588.8v3.66h18.68v4.25h-4.39v5.02
						h8.09v4.25h-31.76V80.92z M598.03,80.92V75.9h-5.47v5.02H598.03z"/>
					<path class="st26" d="M627.89,73.42v4.54h-5.06v-4.54h-8.53v-4.14h22.12v4.14H627.89z M634.2,61.16c0,3.88-3.32,7.2-8.64,7.2
						c-5.43,0-8.75-3.29-8.75-7.13c0-3.91,3.21-7.31,8.75-7.31C630.88,53.93,634.2,57.29,634.2,61.16z M625.52,84.5h18.83v4.21
						h-24.04v-9.67h5.21V84.5z M629.22,61.16c0-1.62-1.48-3.1-3.66-3.1c-2.33,0-3.77,1.48-3.77,3.1c0,1.66,1.44,3.1,3.77,3.1
						C627.74,64.26,629.22,62.83,629.22,61.16z M638.6,78.93h-6.98v-3.99h6.98V54.52h5.17v26.55h-5.17V78.93z"/>
				</g>
			</g>
		</g>
		<g>
			<g>
				<path class="st6" d="M267.91,57.82c4.15,0.4,3.79,1.66,6.74,4.6c3.93,3.91,7.78,4.13,10.52,1.97c-1.65-0.51-3.56-1.87-4.62-2.88
					c-2.97-2.8-3.81-6.5-12.59-3.96C267.57,57.66,267.66,57.79,267.91,57.82"/>
			</g>
			<g>
				<g>
					<path class="st6" d="M357.82,51.94c-13.39-5.97-27.07-2.6-38.07,7.24c-10.72,9.58-18.05,20.86-32.44,21.1
						c11.01,3.82,32.73,2.39,44.64-9.52c0.32-0.33,0.07-0.29-0.13-0.18c-6.89,4.17-17.8,6.22-22.49,4.69
						c12.47-8.07,22.43-22.19,48.44-22.79C358.72,52.37,358.68,52.33,357.82,51.94"/>
				</g>
			</g>
			<g>
				<path class="st6" d="M286.31,73.91c-2.44,0.03-4.95-1.34-6.43-2.33c-2.17-1.45-3.69-3.54-5.38-5.19
					c-2.74-2.7-7.33-4.7-13.62-2.18c-0.34,0.14-0.41,0.3-0.07,0.32c5.77,0.29,5.57,1,10.41,6.37
					C274.5,74.52,283.21,75.55,286.31,73.91"/>
			</g>
			<g>
				<path class="st27" d="M346.31,45.14c-2.04-1.22-9.71-5.14-17.17-4.37c-3.87,0.4-7.24,1.43-10.63,3.86
					c-1.6,1.03-2.71,1.81-3.68,2.53v0c-0.08,0.06-0.45,0.34-0.56,0.42c-3.07,2.27-5.75,3.4-7.3,3.91c-0.55,0.17-1.03,0.3-1.42,0.4
					c5.01-6.42,10.41-12.55,17.08-15.16c0.21-0.09,0.2-0.35-0.02-0.4c-8.1-2.04-16.58-0.89-23.26,9.38
					c-7.61,11.69-12.15,25.63-22.67,20.6c6.5,6.18,14.52,3.51,21.42-4.84c0.97-1.18,1.95-2.42,2.92-3.68l1.15-1.5
					c3.29-0.24,5.7-1.04,7.09-1.62l-2.27,3.12c-7.54,10.34-17.66,22.76-32.68,16.62c17.34,11.54,30.31-5.05,36.76-11.12
					c7.98-7.49,16-17.09,35.26-17.62C346.76,45.64,347.08,45.59,346.31,45.14"/>
			</g>
		</g>
	</g>
	<line class="st3" x1="0" y1="3" x2="957" y2="3"/>
	<line class="st4" x1="963" y1="3" x2="1920" y2="3"/>
</g>
<g id="sider">
</g>
<g id="소개_x5F_상단_x5F_하단">
</g>
<g id="소개_x5F_본문">
</g>
<g id="menu_x5F_소개" class="st63">
</g>
<g id="menu_x5F_산하기관" class="st63">
</g>
<g id="menu_x5F_산하기관_copy" class="st63">
</g>
<g id="menu_x5F_사회공헌" class="st63">
</g>
<g id="menu_x5F_PR" class="st63">
</g>
<g id="menu_x5F_PR_copy" class="st63">
</g>
<g id="그리드_14_x2F_20" class="st63">
</g>
<g id="icon">
</g>
<g id="Layer_16" class="st63">
</g>
<g id="예약팝업">
</g>
</svg>
