<?xml version="1.0" encoding="utf-8"?>
<!-- Generator: Adobe Illustrator 25.0.1, SVG Export Plug-In . SVG Version: 6.00 Build 0)  -->
<svg version="1.1" xmlns="http://www.w3.org/2000/svg" xmlns:xlink="http://www.w3.org/1999/xlink" x="0px" y="0px"
	 viewBox="0 0 383.76 53.6" style="enable-background:new 0 0 383.76 53.6;" xml:space="preserve">
<style type="text/css">
	.st0{opacity:0.18;clip-path:url(#SVGID_2_);fill:url(#SVGID_3_);}
	.st1{opacity:0.18;clip-path:url(#SVGID_2_);fill:url(#SVGID_4_);}
	.st2{fill:#FFFFFF;}
	.st3{fill:none;stroke:#E56076;stroke-width:7;stroke-miterlimit:10;}
	.st4{fill:none;stroke:#717171;stroke-width:7;stroke-miterlimit:10;}
	.st5{fill:#E56076;}
	.st6{fill:#717171;}
	.st7{fill:#A5A7AA;}
	.st8{fill:none;stroke:#FFFFFF;stroke-width:3;stroke-miterlimit:10;}
	.st9{fill:none;stroke:#E56076;stroke-width:3;stroke-miterlimit:10;}
	.st10{fill:none;stroke:#E56076;stroke-width:2;stroke-miterlimit:10;}
	.st11{fill:#FFFFFF;stroke:#A5A7AA;stroke-width:0.75;stroke-miterlimit:10;}
	.st12{fill:#838383;}
	.st13{fill:#E56076;stroke:#E56076;stroke-width:0;stroke-linecap:round;stroke-linejoin:round;}
	.st14{fill:none;stroke:#FFFFFF;stroke-width:4;stroke-linecap:round;stroke-linejoin:round;stroke-miterlimit:10;}
	.st15{fill:#FFFFFF;stroke:#FFFFFF;stroke-width:4;stroke-linecap:round;stroke-linejoin:round;stroke-miterlimit:10;}
	.st16{fill:none;stroke:#FFFFFF;stroke-width:4;stroke-linecap:round;stroke-linejoin:round;}
	.st17{fill:#A4354E;}
	.st18{fill:#FFFFFF;stroke:#FFFFFF;stroke-width:4;}
	.st19{fill:none;stroke:#A4354E;stroke-width:4;stroke-miterlimit:10;}
	.st20{fill:none;stroke:#FFFFFF;stroke-width:4;}
	.st21{fill:none;stroke:#FFFFFF;stroke-width:4;stroke-miterlimit:10;}
	.st22{fill:none;stroke:#E56076;stroke-width:4;stroke-miterlimit:10;}
	.st23{fill:#B8B8B8;}
	.st24{fill:none;stroke:#000000;stroke-width:3;stroke-miterlimit:10;}
	.st25{fill:#D7D7D7;}
	.st26{fill:#3E3A39;}
	.st27{fill:#E76076;}
	.st28{fill:#777777;}
	.st29{fill:none;stroke:#E56076;stroke-width:0.75;stroke-miterlimit:10;}
	.st30{fill:#E56076;stroke:#E56076;stroke-width:0.75;stroke-miterlimit:10;}
	.st31{fill:none;stroke:#6D6E71;stroke-width:0.75;stroke-miterlimit:10;}
	.st32{clip-path:url(#SVGID_10_);}
	.st33{fill:none;stroke:#919396;stroke-width:0.5;stroke-miterlimit:10;}
	.st34{fill:none;stroke:#6D6E71;stroke-width:0.5;stroke-miterlimit:10;}
	.st35{opacity:0.5;fill:#E56076;}
	.st36{fill:none;stroke:#E56076;stroke-width:5;stroke-linecap:round;stroke-linejoin:round;stroke-dasharray:9.1907,9.1907;}
	.st37{fill:none;stroke:#919396;stroke-width:0.75;stroke-miterlimit:10;}
	.st38{fill:none;stroke:#E56076;stroke-width:5;stroke-linecap:round;stroke-linejoin:round;stroke-dasharray:8.7099,8.7099;}
	.st39{fill:#EDF0F2;}
	.st40{fill:none;stroke:#6D6E71;stroke-width:4;stroke-miterlimit:10;}
	.st41{fill:#FFFFFF;stroke:#E56076;stroke-width:4;stroke-linecap:round;stroke-linejoin:round;stroke-miterlimit:10;}
	.st42{opacity:0.7;fill:#FFFFFF;}
	.st43{fill:none;stroke:#717171;stroke-width:2;stroke-miterlimit:10;}
	.st44{display:none;}
	.st45{display:inline;}
	.st46{fill:none;stroke:#E56076;stroke-width:6;stroke-miterlimit:10;}
	.st47{fill:none;stroke:#A5A7AA;stroke-width:0.75;stroke-miterlimit:10;}
	.st48{display:inline;fill:none;stroke:#E56076;stroke-width:3;stroke-miterlimit:10;}
	.st49{display:inline;fill:none;stroke:#E56076;stroke-width:6;stroke-miterlimit:10;}
	.st50{display:inline;fill:none;stroke:#A5A7AA;stroke-width:0.75;stroke-miterlimit:10;}
	.st51{fill:none;stroke:#DE295E;stroke-width:4;}
	.st52{fill:none;stroke:#DE295E;stroke-width:4;stroke-linecap:round;stroke-linejoin:round;}
	.st53{fill:#FFFFFF;stroke:#DE295E;stroke-width:4;stroke-linecap:round;stroke-linejoin:round;}
	.st54{fill:#757575;stroke:#DE295E;}
	.st55{fill:#FFFFFF;stroke:#DE295E;stroke-width:4;}
	.st56{fill:#FFFFFF;stroke:#000000;stroke-width:0.4552;stroke-linecap:round;stroke-linejoin:round;stroke-miterlimit:10;}
	
		.st57{clip-path:url(#SVGID_34_);fill:#FFFFFF;stroke:#000000;stroke-width:0.4552;stroke-linecap:round;stroke-linejoin:round;stroke-miterlimit:10;}
	.st58{fill:none;stroke:#000000;stroke-width:0.4006;stroke-linecap:round;stroke-linejoin:round;stroke-miterlimit:10;}
	.st59{fill:none;stroke:#000000;stroke-width:0.4552;stroke-linecap:round;stroke-linejoin:round;stroke-miterlimit:10;}
	.st60{fill:#FFFFFF;stroke:#000000;stroke-width:0.4006;stroke-linecap:round;stroke-linejoin:round;stroke-miterlimit:10;}
	.st61{fill:#FFFFFF;stroke:#000000;stroke-width:0.2543;stroke-linecap:round;stroke-linejoin:round;stroke-miterlimit:10;}
	.st62{fill:none;stroke:#000000;stroke-width:0.4487;stroke-miterlimit:10;}
	.st63{fill:none;stroke:#000000;stroke-width:0.25;stroke-miterlimit:10;stroke-dasharray:4,1;}
	.st64{fill:none;stroke:#000000;stroke-width:0.6577;stroke-linecap:round;stroke-linejoin:round;stroke-miterlimit:10;}
	.st65{fill:#FFFFFF;stroke:#000000;stroke-width:0.6577;stroke-linecap:round;stroke-linejoin:round;stroke-miterlimit:10;}
	
		.st66{clip-path:url(#SVGID_36_);fill:#FFFFFF;stroke:#000000;stroke-width:0.4552;stroke-linecap:round;stroke-linejoin:round;stroke-miterlimit:10;}
	.st67{fill:#DBEDF8;stroke:#000000;stroke-width:0.5265;stroke-miterlimit:10;}
	.st68{fill:#FFFFFF;stroke:#000000;stroke-width:0.3183;stroke-miterlimit:10;}
	.st69{fill:none;stroke:#000000;stroke-width:0.2889;stroke-linecap:round;stroke-linejoin:round;stroke-miterlimit:10;}
	.st70{fill:none;stroke:#000000;stroke-width:0.4487;stroke-linecap:round;stroke-linejoin:round;stroke-miterlimit:10;}
	.st71{fill:#FFFFFF;stroke:#000000;stroke-width:0.4487;stroke-miterlimit:10;}
	.st72{fill:none;stroke:#000000;stroke-width:0.3949;stroke-linecap:round;stroke-linejoin:round;stroke-miterlimit:10;}
	.st73{fill:#FFFFFF;stroke:#000000;stroke-width:0.3949;stroke-linecap:round;stroke-linejoin:round;stroke-miterlimit:10;}
	.st74{fill:none;stroke:#000000;stroke-width:0.2633;stroke-miterlimit:10;}
	.st75{fill:none;stroke:#000000;stroke-width:0.4552;stroke-linecap:round;stroke-linejoin:round;}
	.st76{fill:none;stroke:#000000;stroke-width:0.4552;stroke-linecap:round;stroke-linejoin:round;stroke-dasharray:1.8082,1.8082;}
	.st77{fill:none;stroke:#000000;stroke-width:0.4552;stroke-linecap:round;stroke-linejoin:round;stroke-dasharray:1.6593,1.6593;}
	.st78{fill:none;stroke:#000000;stroke-width:0.4552;stroke-linecap:round;stroke-linejoin:round;stroke-dasharray:1.4435,1.4435;}
	.st79{fill:none;stroke:#000000;stroke-width:0.3857;stroke-linecap:round;stroke-linejoin:round;stroke-miterlimit:10;}
	.st80{fill:none;}
	.st81{fill:none;stroke:#000000;stroke-width:0.3498;stroke-miterlimit:10;}
	.st82{fill:#FFFFFF;stroke:#000000;stroke-width:0.3857;stroke-linecap:round;stroke-linejoin:round;stroke-miterlimit:10;}
	
		.st83{fill:none;stroke:#000000;stroke-width:0.4552;stroke-linecap:round;stroke-linejoin:round;stroke-miterlimit:10;stroke-dasharray:0.8255;}
	.st84{fill:none;stroke:#000000;stroke-width:0.4411;stroke-linecap:round;stroke-linejoin:round;stroke-miterlimit:10;}
	.st85{fill:none;stroke:#000000;stroke-width:0.4577;stroke-linecap:round;stroke-linejoin:round;stroke-miterlimit:10;}
	.st86{fill:#FFFFFF;stroke:#000000;stroke-width:0.4577;stroke-linecap:round;stroke-linejoin:round;stroke-miterlimit:10;}
	.st87{fill:none;stroke:#000000;stroke-width:0.4727;stroke-linecap:round;stroke-linejoin:round;stroke-miterlimit:10;}
	.st88{fill:none;stroke:#000000;stroke-width:0.3559;stroke-linecap:round;stroke-linejoin:round;stroke-miterlimit:10;}
	.st89{fill:none;stroke:#000000;stroke-width:0.3103;stroke-linecap:round;stroke-linejoin:round;stroke-miterlimit:10;}
	
		.st90{clip-path:url(#SVGID_38_);fill:#FFFFFF;stroke:#000000;stroke-width:0.4552;stroke-linecap:round;stroke-linejoin:round;stroke-miterlimit:10;}
	.st91{fill:none;stroke:#000000;stroke-width:0.4678;stroke-linecap:round;stroke-linejoin:round;stroke-miterlimit:10;}
	.st92{fill:none;stroke:#000000;stroke-width:0.5316;stroke-linecap:round;stroke-linejoin:round;stroke-miterlimit:10;}
	.st93{fill:none;stroke:#000000;stroke-width:0.3965;stroke-linecap:round;stroke-linejoin:round;stroke-miterlimit:10;}
	.st94{fill-rule:evenodd;clip-rule:evenodd;fill:#FFFFFF;}
	.st95{opacity:0.85;fill:#E56076;}
	.st96{fill:none;stroke:#FFFFFF;stroke-width:5;stroke-miterlimit:10;}
	.st97{fill:none;stroke:#FFFFFF;stroke-width:2;stroke-miterlimit:10;}
</style>
<g id="텍스트">
</g>
<g id="main">
	<g>
		<g>
			<g>
				<g>
					<path class="st26" d="M113.25,26.42h-3.36v-4.1h7.64v-4.06h5.17v4.06h7.76v4.1h-3.29c1.18,1.4,1.88,3.18,1.88,5.13
						c0,4.65-3.91,8.34-8.86,8.34c-4.95,0-8.79-3.69-8.79-8.34C111.41,29.59,112.07,27.82,113.25,26.42z M120.79,42.44v6.57h17.73
						v4.21h-22.93V42.44H120.79z M120.2,35.61c2.25,0,3.77-1.81,3.77-4.4c0-2.55-1.51-4.58-3.77-4.58s-3.77,2.03-3.77,4.58
						C116.43,33.8,117.94,35.61,120.2,35.61z M137.96,19.07v9.38h5.47v4.25h-5.47v11.15h-5.13V19.07H137.96z"/>
					<path class="st26" d="M165.56,33.8v4.06h-18.32V26.53h11.15v-2.77h-11.15v-4.14h16.21v11.04H152.3v3.14H165.56z M151.93,40.19
						h22.34v13.4h-22.34V40.19z M157.11,44.36v4.95h12v-4.95H157.11z M174.28,19.07v19.46h-5.13V19.07H174.28z"/>
					<path class="st26" d="M195.19,40.26v4.36h-14.22V21.14h13.11v4.36h-7.94v14.77H195.19z M209.71,19.07v34.16h-4.99V35.09h-2.47
						v17.02h-4.84V19.48h4.84v11.3h2.47V19.07H209.71z"/>
					<path class="st26" d="M217.11,26.08h-3.14v-4.14h7.64v-4.02h5.17v4.02h7.76v4.14h-3.1c1,1.33,1.59,2.92,1.59,4.62
						c0,4.43-3.84,8.05-8.75,8.05c-4.91,0-8.71-3.62-8.71-8.05C215.56,29,216.11,27.41,217.11,26.08z M236.9,53.6v-8.35h-17.25V41
						h22.38V53.6H236.9z M224.27,34.5c2.29,0,3.77-1.81,3.77-4.1c0-2.29-1.48-4.14-3.77-4.14c-2.33,0-3.77,1.85-3.77,4.14
						C220.51,32.69,221.95,34.5,224.27,34.5z M242.04,19.07v8.2h5.47v4.32h-5.47v7.57h-5.13V19.07H242.04z"/>
					<path class="st26" d="M256.42,45.44V34.62h5.06v10.82h3.32V34.62h5.06v10.82h11.34v4.25h-31.76v-4.25H256.42z M277.03,40.67
						h-5.1V25.83h-18.72v-4.36h23.82V40.67z"/>
					<path class="st26" d="M306.81,42.44v4.32h-22.49v-4.32H306.81z M285.87,29.08c0-5.28,4.43-8.98,9.64-8.98
						c5.06,0,9.67,3.69,9.67,8.98c0,5.36-4.5,8.97-9.67,8.97C290.3,38.05,285.87,34.47,285.87,29.08z M299.94,29.08
						c0-2.81-1.99-4.69-4.43-4.69c-2.48,0-4.47,1.88-4.47,4.69c0,2.84,1.99,4.73,4.47,4.73C297.94,33.8,299.94,31.92,299.94,29.08z
						 M313.79,19.07v34.16h-5.13V19.07H313.79z"/>
					<path class="st26" d="M318.83,45.44h8.05v-5.02H323V28.34h18.21v-3.47H323v-4.25h23.38v11.89h-18.17v3.66h18.68v4.25h-4.39
						v5.02h8.09v4.25h-31.76V45.44z M337.44,45.44v-5.02h-5.47v5.02H337.44z"/>
					<path class="st26" d="M367.29,37.94v4.54h-5.06v-4.54h-8.53V33.8h22.12v4.14H367.29z M373.61,25.68c0,3.88-3.32,7.2-8.64,7.2
						c-5.43,0-8.75-3.29-8.75-7.13c0-3.91,3.21-7.31,8.75-7.31C370.28,18.44,373.61,21.8,373.61,25.68z M364.93,49.02h18.83v4.21
						h-24.04v-9.67h5.21V49.02z M368.62,25.68c0-1.62-1.48-3.1-3.66-3.1c-2.33,0-3.77,1.48-3.77,3.1c0,1.66,1.44,3.1,3.77,3.1
						C367.14,28.78,368.62,27.34,368.62,25.68z M378,43.44h-6.98v-3.99H378V19.03h5.17v26.55H378V43.44z"/>
				</g>
			</g>
		</g>
		<g>
			<g>
				<path class="st6" d="M7.32,22.34c4.15,0.4,3.79,1.66,6.74,4.6c3.93,3.91,7.78,4.13,10.52,1.97c-1.65-0.51-3.56-1.87-4.62-2.88
					c-2.97-2.8-3.81-6.5-12.59-3.96C6.98,22.18,7.07,22.31,7.32,22.34"/>
			</g>
			<g>
				<g>
					<path class="st6" d="M97.22,16.46c-13.39-5.97-27.07-2.6-38.07,7.24C48.43,33.27,41.1,44.55,26.72,44.8
						c11.01,3.82,32.73,2.39,44.64-9.52c0.32-0.33,0.07-0.29-0.13-0.18c-6.89,4.17-17.8,6.22-22.49,4.69
						C61.2,31.72,71.16,17.6,97.17,16.99C98.13,16.88,98.09,16.84,97.22,16.46"/>
				</g>
			</g>
			<g>
				<path class="st6" d="M25.71,38.43c-2.44,0.03-4.95-1.34-6.43-2.33c-2.17-1.45-3.69-3.54-5.38-5.19
					c-2.74-2.7-7.33-4.7-13.62-2.18c-0.34,0.14-0.41,0.3-0.07,0.32c5.77,0.29,5.57,1,10.41,6.37
					C13.91,39.04,22.62,40.06,25.71,38.43"/>
			</g>
			<g>
				<path class="st27" d="M85.72,9.65c-2.04-1.22-9.71-5.14-17.17-4.37c-3.87,0.4-7.24,1.43-10.63,3.86
					c-1.6,1.03-2.71,1.81-3.68,2.53v0c-0.08,0.06-0.45,0.34-0.56,0.42c-3.07,2.27-5.75,3.4-7.3,3.91c-0.55,0.17-1.03,0.3-1.42,0.4
					C49.97,9.98,55.37,3.85,62.04,1.24c0.21-0.09,0.2-0.35-0.02-0.4c-8.1-2.04-16.58-0.89-23.26,9.38
					c-7.61,11.69-12.15,25.63-22.67,20.6c6.5,6.18,14.52,3.51,21.42-4.84c0.97-1.18,1.95-2.42,2.92-3.68l1.15-1.5
					c3.29-0.24,5.7-1.04,7.09-1.62l-2.27,3.12c-7.54,10.34-17.66,22.76-32.68,16.62c17.34,11.54,30.31-5.05,36.76-11.12
					c7.98-7.49,16-17.09,35.26-17.62C86.17,10.16,86.48,10.1,85.72,9.65"/>
			</g>
		</g>
	</g>
</g>
<g id="hi">
</g>
<g id="상단_x5F_hi">
</g>
<g id="메인상단_x5F_hi">
</g>
<g id="sider">
</g>
<g id="소개_x5F_상단_x5F_하단">
</g>
<g id="소개_x5F_본문">
</g>
<g id="menu_x5F_소개" class="st44">
</g>
<g id="menu_x5F_산하기관" class="st44">
</g>
<g id="menu_x5F_산하기관_copy" class="st44">
</g>
<g id="menu_x5F_사회공헌" class="st44">
</g>
<g id="menu_x5F_PR" class="st44">
</g>
<g id="menu_x5F_PR_copy" class="st44">
</g>
<g id="그리드_14_x2F_20" class="st44">
</g>
<g id="icon">
</g>
<g id="Layer_16" class="st44">
</g>
<g id="예약팝업">
</g>
</svg>
