<svg xmlns="http://www.w3.org/2000/svg" viewBox="0 0 194.12 189.76"><defs><style>.cls-1{fill:none;stroke:#fff;stroke-miterlimit:10;stroke-width:5px;}</style></defs><g id="예약팝업"><rect class="cls-1" x="2.5" y="36.43" width="189.12" height="150.84"/><rect class="cls-1" x="66.19" y="2.5" width="56.8" height="32.03"/><path class="cls-1" d="M62.72,93.94a13.58,13.58,0,1,1-13.6-13.58A13.58,13.58,0,0,1,62.72,93.94Z"/><path class="cls-1" d="M78.62,132.79a13.06,13.06,0,0,0-13-13h-31a13,13,0,0,0-13,13l3.86,19.57H75.24Z"/><line class="cls-1" x1="109.35" y1="80.37" x2="171.41" y2="80.37"/><line class="cls-1" x1="109.35" y1="103.11" x2="171.41" y2="103.11"/><line class="cls-1" x1="109.35" y1="125.84" x2="171.41" y2="125.84"/><line class="cls-1" x1="109.35" y1="148.58" x2="140.39" y2="148.58"/></g></svg>