<svg xmlns="http://www.w3.org/2000/svg" viewBox="0 0 59.26 80.85"><defs><style>.cls-1{fill:none;stroke:#e56076;stroke-miterlimit:10;stroke-width:4px;}</style></defs><g id="sider"><path class="cls-1" d="M44.35,9h7.44a5.37,5.37,0,0,1,2.13.43,5.28,5.28,0,0,1,1.74,1.17,5.47,5.47,0,0,1,1.6,3.86v59a5.55,5.55,0,0,1-.43,2.13,5.45,5.45,0,0,1-2.91,2.91,5.37,5.37,0,0,1-2.13.43H7.46a5.35,5.35,0,0,1-2.12-.43,5.45,5.45,0,0,1-2.91-2.91A5.37,5.37,0,0,1,2,73.38v-59a5.47,5.47,0,0,1,1.6-3.86A5.18,5.18,0,0,1,5.34,9.38,5.35,5.35,0,0,1,7.46,9H14.9"/><rect class="cls-1" x="16.41" y="2" width="26.45" height="17" rx="5.46"/><line class="cls-1" x1="12.74" y1="31.62" x2="48.17" y2="31.62"/><line class="cls-1" x1="12.74" y1="46.73" x2="48.17" y2="46.73"/><line class="cls-1" x1="12.74" y1="61.85" x2="48.17" y2="61.85"/><line class="cls-1" x1="42.45" y1="13.97" x2="17.54" y2="13.97"/></g></svg>