<svg xmlns="http://www.w3.org/2000/svg" xmlns:xlink="http://www.w3.org/1999/xlink" viewBox="0 0 80.97 74.76"><defs><style>.cls-1,.cls-6{fill:none;}.cls-2{isolation:isolate;}.cls-3{clip-path:url(#clip-path);}.cls-4{opacity:0.18;mix-blend-mode:darken;fill:url(#linear-gradient);}.cls-5{fill:#fff;stroke-linecap:round;stroke-linejoin:round;}.cls-5,.cls-6{stroke:#e56076;stroke-width:4px;}.cls-6{stroke-miterlimit:10;}.cls-7{fill:#e56076;}</style><clipPath id="clip-path"><rect class="cls-1" x="-2052.41" y="-494.08" width="1921.9" height="962.15"/></clipPath><linearGradient id="linear-gradient" x1="-535.25" y1="45.1" x2="6.02" y2="45.1" gradientUnits="userSpaceOnUse"><stop offset="0" stop-color="#fff"/><stop offset="1"/></linearGradient></defs><g class="cls-2"><g id="main"><g class="cls-3"><rect class="cls-4" x="-535.25" y="-512.71" width="541.26" height="1115.63"/></g></g><g id="sider"><path class="cls-5" d="M23.72,38.28a11,11,0,0,1-10.86,11.1,11.11,11.11,0,0,1,0-22.21A11,11,0,0,1,23.72,38.28Z"/><path class="cls-5" d="M79,38.28A10.86,10.86,0,1,1,68.11,27.17,11,11,0,0,1,79,38.28Z"/><path class="cls-5" d="M68.11,40.05C68.11,22,55.81,7.34,40.64,7.34S13.18,22,13.18,40.05s12.3,32.71,27.46,32.71S68.11,58.12,68.11,40.05Z"/><path class="cls-6" d="M73,47.65V56.4a7,7,0,0,1-2,4.91,6.68,6.68,0,0,1-4.8,2H47.93"/><path class="cls-6" d="M13.56,34.73s15.32,4.67,27.21-18.8c0,0,12.38,20.68,27.16,20.34"/><path class="cls-7" d="M30.11,43.91a2.72,2.72,0,1,1-2.72-2.72A2.71,2.71,0,0,1,30.11,43.91Z"/><path class="cls-7" d="M57.73,43.91A2.71,2.71,0,1,1,55,41.19,2.7,2.7,0,0,1,57.73,43.91Z"/><path class="cls-6" d="M52.07,57.12a13.34,13.34,0,0,1-22.85,0"/><path class="cls-5" d="M58.56,63.35A6.25,6.25,0,1,1,52.31,57,6.32,6.32,0,0,1,58.56,63.35Z"/><path class="cls-6" d="M10.25,27.53S14.22,2,40.64,2"/><path class="cls-6" d="M70.5,27.53S66.53,2,40.11,2"/></g></g></svg>